<?xml version="1.0" standalone="no"?>
<!DOCTYPE svg PUBLIC "-//W3C//DTD SVG 20010904//EN"
 "http://www.w3.org/TR/2001/REC-SVG-20010904/DTD/svg10.dtd">
<svg version="1.0" xmlns="http://www.w3.org/2000/svg"
 width="8629.000000pt" height="833.000000pt" viewBox="0 0 8629.000000 833.000000"
 preserveAspectRatio="xMidYMid meet">

<g transform="translate(0.000000,833.000000) scale(0.100000,-0.100000)"
fill="#000000" stroke="none">
<path d="M39725 7319 c-541 -41 -983 -297 -1277 -739 -70 -106 -180 -336 -223
-465 -94 -289 -132 -656 -106 -1029 46 -642 236 -1091 600 -1419 322 -290 766
-430 1258 -397 289 20 480 70 703 186 339 176 627 521 759 909 29 88 72 270
86 368 l6 47 -255 0 -256 0 -5 -27 c-4 -16 -21 -82 -40 -148 -89 -323 -247
-564 -465 -712 -234 -158 -578 -209 -930 -137 -496 102 -824 517 -916 1159
-21 146 -24 506 -5 670 49 425 173 725 391 945 226 228 509 340 860 340 362 0
608 -87 796 -282 119 -124 191 -245 249 -422 l33 -101 252 -3 253 -2 -7 57
c-32 283 -192 584 -432 813 -246 235 -556 359 -974 390 -150 11 -195 11 -355
-1z"/>
<path d="M78810 5300 l0 -1930 220 0 220 0 0 173 1 172 32 -40 c62 -78 183
-198 244 -241 136 -98 287 -144 495 -152 221 -8 380 23 553 108 369 182 621
598 691 1142 21 166 15 542 -10 683 -57 307 -155 521 -320 693 -181 189 -369
286 -632 327 -383 61 -754 -67 -984 -338 l-50 -59 0 696 0 696 -230 0 -230 0
0 -1930z m1432 505 c115 -30 186 -72 279 -164 74 -75 92 -100 142 -201 106
-215 143 -413 134 -710 -9 -259 -47 -447 -126 -616 -134 -286 -329 -414 -631
-415 -318 -1 -533 125 -661 386 -96 196 -131 382 -132 695 -1 262 24 430 86
575 100 236 319 412 572 459 96 19 245 14 337 -9z"/>
<path d="M15020 5295 l0 -1925 1425 0 1425 0 0 230 0 230 -1170 0 -1170 0 0
650 0 650 1065 0 1065 0 0 225 0 225 -1065 0 -1065 0 0 585 0 585 1150 0 1150
0 0 235 0 235 -1405 0 -1405 0 0 -1925z"/>
<path d="M42120 5295 l0 -1925 235 0 235 0 0 1925 0 1925 -235 0 -235 0 0
-1925z"/>
<path d="M43300 6955 l0 -265 240 0 240 0 0 265 0 265 -240 0 -240 0 0 -265z"/>
<path d="M56550 5295 l0 -1925 260 0 260 0 2 813 3 812 725 6 c624 5 735 8
800 22 260 58 446 171 584 354 157 209 231 417 243 683 16 370 -86 655 -310
866 -139 131 -309 218 -522 267 -87 20 -119 21 -1067 24 l-978 4 0 -1926z
m1903 1443 c127 -35 208 -79 284 -154 75 -75 124 -173 149 -294 20 -103 15
-321 -11 -415 -26 -95 -81 -190 -143 -246 -66 -61 -205 -130 -322 -161 -83
-21 -102 -22 -712 -25 l-628 -4 0 666 0 666 643 -3 642 -4 98 -26z"/>
<path d="M67370 5295 l0 -1925 265 0 265 0 0 1925 0 1925 -265 0 -265 0 0
-1925z"/>
<path d="M84840 5295 l0 -1925 235 0 235 0 0 1925 0 1925 -235 0 -235 0 0
-1925z"/>
<path d="M11330 7196 c0 -4 79 -120 250 -371 441 -645 530 -779 527 -789 -3
-6 -110 -166 -239 -356 -456 -673 -568 -839 -568 -844 0 -3 191 -6 425 -6
l425 0 38 59 c20 33 69 115 109 183 159 273 204 348 211 348 4 0 86 -131 182
-291 96 -160 179 -293 185 -295 5 -2 200 -3 432 -2 l422 3 -132 195 c-73 107
-257 379 -410 604 l-277 408 144 212 c80 116 207 302 283 414 76 112 188 276
249 365 l111 162 -426 3 c-332 2 -428 -1 -437 -10 -7 -7 -81 -133 -165 -281
-84 -147 -158 -266 -163 -264 -5 2 -79 128 -164 280 l-155 277 -428 0 c-236 0
-429 -2 -429 -4z"/>
<path d="M560 6700 l0 -490 540 0 540 0 0 -1430 0 -1430 590 0 590 0 0 1430 0
1430 535 0 535 0 0 490 0 490 -1665 0 -1665 0 0 -490z"/>
<path d="M4080 5270 l0 -1920 1610 0 1610 0 0 490 0 490 -1022 2 -1023 3 0
240 0 240 1023 3 1022 2 0 455 0 455 -1025 0 -1025 0 0 240 0 240 1025 0 1025
0 0 490 0 490 -1610 0 -1610 0 0 -1920z"/>
<path d="M7510 5270 l0 -1920 923 0 c557 0 967 4 1037 10 167 16 340 45 465
80 707 197 1115 698 1216 1495 18 143 16 570 -4 710 -114 810 -535 1333 -1200
1490 -234 55 -242 55 -1382 55 l-1055 0 0 -1920z m1720 930 c306 -38 529 -182
650 -420 77 -153 110 -304 110 -503 -2 -552 -255 -885 -712 -937 -51 -6 -205
-10 -343 -8 l-250 3 -3 938 -2 937 233 0 c128 0 271 -5 317 -10z"/>
<path d="M52050 6570 l0 -390 -190 0 -190 0 0 -195 0 -195 190 0 189 0 3
-1007 c3 -998 4 -1009 25 -1084 59 -209 150 -306 335 -356 87 -24 359 -23 473
2 44 9 83 19 87 21 5 3 8 87 8 187 l0 182 -147 0 c-177 0 -223 14 -270 86
l-28 43 -3 963 -2 963 225 0 225 0 0 195 0 195 -225 0 -225 0 0 390 0 390
-240 0 -240 0 0 -390z"/>
<path d="M65790 6570 l0 -390 -187 -2 -188 -3 0 -190 0 -190 188 -3 187 -2 0
-908 c0 -499 5 -959 10 -1022 24 -307 131 -461 357 -517 99 -24 337 -24 466 1
l97 19 0 187 0 186 -132 0 c-85 -1 -150 4 -181 13 -63 18 -111 72 -126 140 -8
36 -11 338 -11 976 l0 925 225 0 225 0 0 195 0 195 -225 0 -225 0 0 390 0 390
-240 0 -240 0 0 -390z"/>
<path d="M71470 6570 l0 -390 -190 0 -190 0 0 -195 0 -195 190 0 189 0 4
-1012 c3 -1129 -1 -1065 73 -1215 76 -154 201 -223 429 -239 96 -7 287 8 370
30 l50 12 3 185 2 185 -147 0 c-192 -1 -243 19 -284 109 -18 38 -19 90 -19
992 l0 953 223 2 222 3 0 190 0 190 -222 3 -223 2 0 390 0 390 -240 0 -240 0
0 -390z"/>
<path d="M24270 6254 c-159 -19 -269 -46 -385 -94 -429 -176 -717 -599 -784
-1150 -39 -327 -14 -644 74 -907 110 -331 331 -589 619 -724 160 -75 335 -109
560 -109 564 0 938 219 1164 682 131 269 190 580 179 952 -13 443 -125 746
-367 986 -180 180 -401 295 -661 345 -82 16 -329 27 -399 19z m240 -414 c381
-46 601 -280 677 -718 26 -152 23 -471 -6 -631 -28 -158 -79 -318 -144 -450
-120 -249 -327 -365 -647 -365 -360 0 -582 149 -721 482 -104 250 -128 611
-63 937 48 238 173 486 296 587 162 132 371 186 608 158z"/>
<path d="M63931 6250 c-174 -22 -373 -96 -512 -191 -87 -59 -230 -198 -299
-290 -143 -192 -240 -453 -281 -759 -21 -156 -16 -501 9 -642 56 -310 186
-570 384 -769 159 -159 340 -252 572 -294 130 -24 428 -16 556 13 220 52 423
162 556 303 134 143 235 353 284 590 11 57 23 114 26 127 l4 22 -231 -2 -232
-3 -19 -75 c-78 -299 -256 -503 -498 -567 -99 -26 -291 -23 -397 6 -81 23
-171 70 -230 121 -119 103 -221 306 -269 535 -27 126 -27 544 -1 682 83 440
263 680 568 759 85 22 277 22 379 -1 137 -31 231 -88 307 -189 74 -98 120
-206 157 -368 l6 -28 230 0 230 0 -6 43 c-41 283 -120 496 -239 640 -132 159
-355 277 -613 323 -107 19 -342 26 -441 14z"/>
<path d="M27450 6239 c-245 -20 -474 -130 -645 -310 -34 -35 -73 -80 -88 -99
l-27 -35 0 183 0 182 -230 0 -230 0 0 -1955 0 -1955 235 0 235 0 0 711 0 710
108 -108 c157 -160 273 -227 467 -269 114 -24 351 -24 465 0 474 102 798 456
909 996 39 188 46 270 46 535 -1 200 -5 283 -18 360 -62 358 -187 595 -420
800 -218 193 -493 279 -807 254z m214 -434 c315 -87 504 -378 547 -846 21
-231 -6 -532 -66 -713 -91 -279 -283 -477 -525 -542 -83 -22 -258 -22 -360 0
-410 88 -616 500 -572 1143 14 201 36 327 82 464 95 284 268 452 520 505 83
17 293 11 374 -11z"/>
<path d="M33220 6239 c-197 -14 -366 -60 -534 -147 -196 -100 -297 -211 -365
-399 -32 -87 -61 -239 -61 -320 l0 -53 218 0 217 0 17 85 c44 229 170 362 394
416 70 17 120 22 234 22 352 0 555 -93 631 -290 29 -77 33 -243 6 -319 -25
-73 -99 -139 -177 -157 -14 -3 -207 -29 -430 -57 -223 -27 -440 -57 -484 -66
-375 -74 -642 -277 -731 -555 -72 -229 -52 -500 52 -689 104 -191 296 -343
505 -399 275 -75 605 -38 879 99 120 61 247 152 335 240 l82 81 16 -73 c41
-182 124 -285 268 -330 86 -26 271 -25 389 3 l89 21 0 173 0 173 -98 -5 c-114
-7 -161 5 -189 45 -17 26 -18 77 -23 947 -6 889 -6 922 -26 990 -57 196 -167
326 -357 421 -143 73 -358 129 -535 139 -182 11 -220 12 -322 4z m758 -1759
c-5 -258 -13 -300 -79 -417 -113 -198 -384 -349 -688 -383 -317 -35 -570 120
-600 367 -18 148 19 280 106 373 104 113 244 161 618 210 127 16 266 37 310
46 94 19 246 67 295 93 l35 19 3 -36 c2 -21 2 -143 0 -272z"/>
<path d="M49995 6243 c-237 -11 -456 -73 -642 -181 -176 -103 -285 -255 -337
-467 -17 -71 -35 -197 -36 -247 l0 -28 220 0 220 0 4 23 c46 236 113 346 256
421 115 61 200 78 385 78 336 1 535 -83 618 -260 27 -57 31 -80 35 -172 6
-140 -12 -204 -72 -264 -27 -27 -61 -49 -92 -59 -27 -9 -218 -37 -424 -62
-426 -52 -525 -68 -629 -96 -290 -81 -512 -258 -603 -481 -76 -189 -78 -475
-3 -661 78 -196 256 -370 457 -447 125 -48 207 -62 368 -63 171 -1 267 13 410
59 196 63 375 170 519 312 46 45 85 81 86 80 0 -2 7 -32 14 -68 17 -88 60
-179 112 -235 79 -85 166 -115 339 -115 110 0 151 6 248 31 l42 12 0 171 0
171 -119 0 c-129 0 -148 7 -175 65 -8 18 -12 291 -16 950 l-5 925 -31 85 c-70
196 -202 323 -431 416 -190 76 -469 118 -718 107z m713 -1710 c-5 -274 -11
-318 -62 -428 -115 -249 -448 -426 -801 -427 -138 -1 -210 17 -310 77 -86 52
-121 90 -163 175 -36 73 -37 76 -36 190 1 132 18 191 81 274 103 134 248 185
683 241 295 38 447 74 550 129 25 14 49 25 53 25 5 1 7 -115 5 -256z"/>
<path d="M61000 6239 c-323 -23 -625 -152 -777 -332 -104 -123 -183 -356 -183
-539 l0 -48 220 0 c207 0 220 1 220 18 0 34 40 174 65 229 33 74 121 163 198
202 106 53 202 72 367 74 334 2 540 -80 623 -248 57 -113 61 -290 11 -393 -28
-58 -86 -104 -154 -122 -19 -5 -231 -34 -470 -64 -449 -57 -569 -80 -701 -135
-175 -73 -334 -199 -411 -327 -51 -83 -94 -219 -109 -341 -22 -183 18 -389
102 -529 42 -71 156 -194 227 -247 205 -150 507 -201 824 -136 242 48 492 182
659 351 61 61 79 74 82 61 3 -10 11 -43 17 -73 32 -144 103 -239 218 -293 63
-30 75 -32 200 -35 111 -3 150 0 228 18 l94 21 0 174 0 173 -107 -5 c-119 -5
-141 2 -177 50 -21 28 -21 34 -26 950 l-6 922 -23 75 c-57 187 -167 313 -359
409 -139 70 -356 126 -530 136 -182 11 -220 12 -322 4z m767 -1696 c-4 -211
-7 -260 -25 -326 -32 -119 -75 -191 -168 -284 -72 -72 -96 -89 -205 -142 -139
-68 -232 -95 -379 -111 -262 -29 -480 70 -568 258 -25 52 -27 68 -27 183 0
125 0 125 38 201 61 124 153 194 322 243 85 25 157 37 510 85 182 25 326 61
420 105 39 18 74 34 79 34 4 1 6 -110 3 -246z"/>
<path d="M69490 6244 c-14 -2 -56 -9 -95 -15 -393 -60 -688 -305 -774 -640
-83 -325 11 -588 272 -756 136 -89 275 -137 727 -253 453 -116 541 -146 628
-209 91 -67 131 -180 112 -314 -20 -137 -96 -237 -231 -304 -150 -73 -284 -99
-483 -90 -411 17 -616 172 -667 505 l-12 82 -229 0 -228 0 4 -22 c3 -13 8 -52
11 -87 25 -258 173 -537 359 -678 114 -86 276 -148 486 -185 117 -20 520 -17
639 5 355 67 593 232 731 507 72 144 85 203 85 395 0 160 -2 175 -28 249 -84
240 -235 356 -615 471 -65 20 -254 70 -422 111 -168 42 -339 89 -381 105 -230
89 -335 235 -299 417 22 106 95 195 204 246 173 82 557 74 743 -15 131 -62
228 -190 256 -337 l12 -62 222 0 223 0 0 33 c0 53 -19 158 -42 227 -83 256
-291 461 -560 549 -141 47 -244 62 -438 66 -102 2 -196 2 -210 -1z"/>
<path d="M73848 6239 c-397 -27 -727 -198 -855 -444 -63 -121 -113 -322 -113
-452 l0 -23 220 0 220 0 4 23 c50 245 116 351 266 427 110 55 195 72 375 72
336 2 535 -82 618 -260 27 -57 31 -79 35 -172 6 -142 -12 -208 -73 -267 -29
-27 -62 -47 -97 -58 -29 -8 -217 -36 -418 -61 -201 -24 -408 -52 -460 -60
-403 -63 -695 -272 -789 -564 -44 -137 -54 -336 -25 -478 64 -313 311 -553
647 -629 99 -22 342 -22 462 0 254 46 502 175 684 354 46 46 85 82 86 81 1 -2
8 -32 15 -68 33 -176 134 -296 282 -336 103 -27 339 -14 441 25 l27 11 0 169
0 170 -108 -6 c-124 -7 -159 5 -189 60 -17 30 -18 97 -23 957 l-5 925 -23 70
c-68 204 -212 342 -457 437 -202 79 -480 115 -747 97z m760 -1711 c-4 -253 -5
-266 -32 -345 -66 -203 -227 -353 -472 -442 -175 -64 -404 -84 -529 -47 -146
43 -253 127 -307 241 -31 66 -33 76 -33 180 1 87 5 122 22 168 31 83 83 148
161 201 114 77 232 106 648 161 105 13 234 36 288 50 96 25 212 68 231 86 5 5
13 9 18 9 5 0 7 -111 5 -262z"/>
<path d="M22565 6225 c-38 -8 -113 -35 -165 -61 -88 -43 -106 -58 -235 -188
-92 -92 -153 -163 -177 -205 l-38 -65 -2 235 -3 234 -222 3 -223 2 0 -1405 0
-1405 235 0 235 0 0 836 c0 563 4 859 11 907 38 242 188 458 383 552 127 60
175 70 354 70 l152 0 0 242 c0 153 -4 244 -10 248 -23 14 -226 14 -295 0z"/>
<path d="M30235 6229 c-225 -31 -425 -112 -592 -241 -82 -63 -225 -218 -286
-310 -177 -268 -256 -563 -257 -955 0 -283 36 -496 116 -692 162 -394 509
-676 918 -746 115 -19 339 -19 473 1 197 29 378 96 525 195 86 58 232 208 296
304 71 107 146 263 172 355 33 122 55 111 -212 108 l-231 -3 -18 -52 c-86
-254 -293 -440 -554 -499 -171 -38 -404 -17 -552 50 -241 111 -389 391 -427
809 l-7 67 1032 0 1032 0 -6 208 c-15 471 -92 744 -279 979 -148 187 -409 340
-688 404 -100 23 -349 33 -455 18z m390 -429 c298 -75 483 -312 535 -685 6
-44 13 -88 15 -97 3 -17 -39 -18 -777 -18 l-781 0 6 78 c3 42 18 117 32 167
88 303 309 513 600 571 93 18 265 11 370 -16z"/>
<path d="M36425 6229 c-266 -39 -501 -170 -686 -382 l-59 -68 0 200 0 201
-225 0 -225 0 0 -1405 0 -1405 235 0 235 0 0 743 c0 980 9 1113 87 1273 66
137 212 289 338 352 95 47 175 64 325 69 90 3 167 1 200 -6 178 -37 303 -167
363 -378 21 -78 22 -83 25 -1065 l3 -988 240 0 240 0 -4 1043 c-4 1148 -2
1103 -68 1300 -98 295 -309 461 -649 512 -103 16 -280 18 -375 4z"/>
<path d="M45619 6225 c-228 -43 -388 -140 -579 -353 l-75 -83 -3 196 -2 195
-235 0 -235 0 0 -1405 0 -1405 234 0 235 0 4 853 c4 915 4 928 58 1103 62 204
202 356 399 437 91 38 140 46 255 47 159 0 261 -37 341 -122 51 -55 76 -106
100 -210 16 -66 18 -168 21 -1090 l4 -1018 239 0 239 0 3 923 3 922 27 96 c58
212 152 334 329 424 177 90 416 98 579 18 117 -57 187 -155 209 -293 7 -42 11
-417 11 -1077 l0 -1013 245 0 245 0 0 1004 c0 1094 -2 1146 -56 1318 -67 215
-190 367 -365 452 -149 72 -239 90 -454 90 -163 -1 -190 -3 -279 -27 -228 -61
-415 -192 -559 -391 -13 -18 -16 -15 -47 39 -111 194 -263 308 -480 360 -94
23 -317 28 -411 10z"/>
<path d="M54425 6229 c-551 -71 -968 -492 -1094 -1105 -34 -161 -46 -386 -33
-564 32 -415 149 -696 387 -935 197 -198 417 -309 683 -345 127 -18 397 -8
519 19 328 71 560 224 737 485 87 128 169 312 190 429 l7 37 -233 0 -233 0
-28 -78 c-56 -159 -202 -330 -344 -404 -284 -149 -686 -117 -894 70 -100 90
-186 238 -233 404 -27 93 -56 269 -56 337 l0 41 1032 0 1031 0 -7 183 c-18
469 -78 708 -236 942 -235 345 -724 544 -1195 484z m399 -429 c203 -52 349
-172 442 -366 39 -82 88 -263 99 -366 l7 -68 -781 0 -782 0 6 53 c27 227 98
395 227 533 117 125 249 199 404 229 101 19 272 12 378 -15z"/>
<path d="M77035 6226 c-248 -41 -428 -136 -617 -327 l-108 -108 -2 192 -3 192
-222 3 -223 2 0 -1405 0 -1405 234 0 235 0 4 878 c3 770 6 887 21 960 53 268
252 491 510 574 90 29 350 37 432 13 144 -42 231 -115 294 -247 76 -162 73
-116 77 -1205 l4 -973 239 0 240 0 0 934 c0 1115 -5 1205 -80 1424 -87 255
-287 425 -575 488 -98 21 -360 27 -460 10z"/>
<path d="M18490 5143 c0 -1123 1 -1141 54 -1308 63 -197 194 -353 366 -437
303 -149 742 -142 1026 17 129 73 248 182 333 308 18 26 34 47 36 47 2 0 1
-90 -2 -200 l-6 -200 226 0 227 0 0 1405 0 1405 -235 0 -235 0 0 -667 c-1
-1033 -14 -1180 -132 -1423 -43 -90 -63 -117 -133 -188 -67 -67 -98 -89 -166
-121 -105 -49 -210 -71 -336 -71 -282 1 -447 116 -520 365 -16 55 -18 141 -21
1083 l-3 1022 -239 0 -240 0 0 -1037z"/>
<path d="M81824 6166 c-3 -8 -4 -477 -1 -1043 4 -1107 4 -1102 58 -1279 61
-199 195 -362 369 -447 252 -124 608 -141 891 -42 183 64 353 197 468 368 18
26 33 47 35 47 1 0 0 -90 -2 -200 l-5 -200 227 0 226 0 0 1405 0 1405 -237 -2
-238 -3 -5 -840 c-6 -914 -7 -918 -66 -1107 -44 -140 -98 -233 -188 -324 -87
-87 -150 -126 -271 -164 -88 -28 -269 -38 -372 -21 -183 31 -308 141 -372 329
l-26 77 -3 1028 -3 1027 -240 0 c-197 0 -241 -3 -245 -14z"/>
<path d="M43300 4765 l0 -1395 240 0 240 0 0 1395 0 1395 -240 0 -240 0 0
-1395z"/>
<path d="M2990 2295 l0 -95 115 0 115 0 0 95 0 95 -115 0 -115 0 0 -95z"/>
<path d="M4880 2185 c0 -113 -2 -205 -4 -205 -2 0 -19 14 -37 32 -60 55 -112
73 -219 73 -113 0 -167 -21 -240 -95 -87 -86 -125 -206 -118 -366 12 -266 163
-424 392 -412 93 5 152 30 204 86 l32 36 0 -52 0 -52 110 0 110 0 -2 578 -3
577 -112 3 -113 3 0 -206z m-85 -303 c59 -41 84 -110 85 -229 0 -182 -61 -266
-192 -266 -45 0 -65 5 -97 26 -115 76 -137 336 -38 443 63 69 165 80 242 26z"/>
<path d="M9490 2184 l0 -206 -46 41 c-54 47 -122 71 -204 71 -116 0 -208 -48
-282 -145 -111 -147 -112 -426 -1 -584 49 -70 95 -106 166 -131 115 -41 250
-20 331 51 l46 41 0 -46 0 -46 110 0 110 0 0 580 0 580 -115 0 -115 0 0 -206z
m-135 -275 c97 -27 151 -134 143 -283 -7 -136 -57 -214 -149 -236 -156 -38
-268 116 -238 326 15 108 60 169 140 192 46 14 58 14 104 1z"/>
<path d="M12220 1810 l0 -580 115 0 115 0 0 580 0 580 -115 0 -115 0 0 -580z"/>
<path d="M18047 2384 c-4 -4 -7 -47 -7 -96 l0 -88 120 0 121 0 -3 93 -3 92
-111 3 c-60 1 -113 -1 -117 -4z"/>
<path d="M20700 2184 l0 -206 -47 41 c-122 108 -337 91 -453 -35 -126 -137
-152 -382 -60 -571 66 -133 153 -193 296 -201 103 -6 170 15 231 71 l43 40 0
-47 0 -46 115 0 115 0 -2 578 -3 577 -117 3 -118 3 0 -207z m-135 -275 c60
-15 109 -70 131 -145 37 -129 -3 -306 -79 -352 -107 -65 -238 -12 -281 114
-21 63 -21 195 0 258 20 59 70 110 121 124 52 14 58 14 108 1z"/>
<path d="M21420 2280 l0 -110 175 0 175 0 0 -470 0 -470 125 0 125 0 0 470 0
470 175 0 175 0 0 110 0 110 -475 0 -475 0 0 -110z"/>
<path d="M22470 1810 l0 -580 435 0 436 0 -3 108 -3 107 -307 3 -308 2 0 140
0 140 280 0 280 0 0 100 0 100 -280 0 -280 0 0 120 0 120 305 0 305 0 0 110 0
110 -430 0 -430 0 0 -580z"/>
<path d="M23450 1810 l0 -580 278 0 c380 0 462 20 581 139 106 106 154 246
155 446 0 311 -138 504 -400 560 -51 11 -141 15 -341 15 l-273 0 0 -580z m591
334 c106 -49 158 -144 167 -307 8 -160 -21 -253 -102 -324 -61 -54 -100 -63
-265 -63 l-141 0 0 361 0 361 148 -4 c123 -3 154 -7 193 -24z"/>
<path d="M11740 2195 l0 -125 -70 0 -70 0 0 -80 0 -80 70 0 70 0 0 -273 c0
-267 1 -275 23 -318 34 -64 89 -89 209 -96 52 -3 112 -3 132 1 l36 7 0 88 0
87 -66 0 c-105 -1 -104 -3 -104 275 l0 228 83 3 82 3 3 78 3 77 -86 0 -85 0 0
125 0 125 -115 0 -115 0 0 -125z"/>
<path d="M28510 2195 l0 -124 -67 -3 -68 -3 0 -75 0 -75 68 -3 67 -3 0 -262
c1 -328 8 -355 110 -400 47 -21 214 -36 264 -23 26 6 26 8 26 94 l0 88 -65 0
c-102 -1 -99 -9 -103 269 l-3 235 85 0 86 0 0 80 0 79 -82 3 -83 3 -3 123 -3
122 -114 0 -115 0 0 -125z"/>
<path d="M3760 2081 c-49 -16 -92 -43 -131 -82 l-39 -39 0 55 0 55 -110 0
-110 0 0 -420 0 -420 114 0 115 0 3 278 c3 267 4 279 26 320 53 99 200 109
266 19 20 -27 21 -43 24 -323 l3 -294 115 0 114 0 0 305 c0 177 -4 325 -11
354 -16 74 -57 131 -119 165 -45 25 -66 29 -144 32 -50 2 -102 0 -116 -5z"/>
<path d="M5508 2077 c-202 -58 -326 -264 -297 -497 13 -112 44 -177 118 -251
94 -94 147 -114 306 -114 111 0 125 2 182 29 89 41 169 131 197 224 7 22 6 22
-88 22 l-95 0 -45 -44 c-55 -55 -122 -73 -205 -55 -81 17 -141 92 -141 178 0
21 2 21 298 23 l297 3 -2 80 c-4 176 -95 323 -239 386 -61 28 -215 36 -286 16z
m212 -185 c32 -20 47 -38 65 -81 32 -73 36 -71 -165 -71 l-180 0 0 23 c0 30
39 96 71 120 53 39 156 43 209 9z"/>
<path d="M6497 2074 c-31 -9 -65 -31 -93 -59 l-44 -44 0 49 0 50 -110 0 -110
0 0 -570 0 -571 113 3 112 3 3 196 2 196 40 -38 c88 -84 253 -104 368 -45 154
78 233 265 204 481 -21 161 -102 285 -219 337 -63 28 -199 34 -266 12z m160
-185 c41 -26 68 -70 88 -144 19 -75 19 -125 0 -200 -29 -108 -88 -159 -185
-159 -100 1 -157 52 -186 165 -28 108 -6 240 50 305 57 64 158 79 233 33z"/>
<path d="M7360 2076 c-114 -31 -198 -99 -252 -203 -74 -142 -77 -294 -9 -439
41 -87 91 -138 179 -182 75 -37 77 -37 196 -37 103 0 130 4 179 23 90 36 167
121 207 227 l10 25 -105 0 c-96 0 -104 -2 -110 -20 -9 -28 -74 -70 -126 -81
-52 -12 -137 4 -174 33 -31 24 -60 79 -69 131 l-7 37 301 0 300 0 0 68 c0 202
-110 366 -280 416 -63 19 -176 20 -240 2z m173 -170 c63 -23 96 -63 112 -133
l7 -33 -186 0 -186 0 6 28 c16 67 58 115 121 137 48 18 78 18 126 1z"/>
<path d="M8357 2074 c-32 -10 -65 -32 -99 -64 -29 -28 -53 -50 -55 -50 -2 0
-3 25 -3 55 l0 56 -107 -3 -108 -3 -3 -417 -2 -418 119 0 120 0 3 283 c3 261
4 285 23 316 30 50 64 71 126 77 70 7 116 -16 144 -71 18 -37 20 -64 23 -322
l3 -283 115 0 114 0 0 295 c0 370 -11 430 -94 503 -67 58 -211 79 -319 46z"/>
<path d="M10136 2080 c-110 -28 -221 -120 -270 -224 -69 -145 -55 -352 33
-480 41 -59 83 -93 161 -130 62 -29 71 -31 185 -31 102 0 129 4 178 23 75 31
149 103 187 184 l30 63 -102 3 c-77 2 -104 0 -107 -10 -9 -28 -66 -69 -117
-84 -128 -37 -235 28 -258 159 l-7 37 301 0 300 0 0 68 c0 128 -39 231 -121
318 -71 74 -147 106 -264 110 -49 2 -107 -1 -129 -6z m194 -185 c40 -21 90
-102 90 -146 0 -5 -83 -9 -185 -9 -141 0 -185 3 -185 13 1 52 75 141 128 153
15 3 32 7 37 10 18 6 86 -6 115 -21z"/>
<path d="M11127 2075 c-31 -10 -66 -34 -99 -65 -29 -28 -53 -50 -55 -50 -2 0
-3 25 -3 55 l0 55 -105 0 -105 0 0 -420 0 -420 109 0 109 0 3 268 c4 261 5
268 29 316 32 64 63 86 131 92 70 7 116 -16 144 -71 18 -37 20 -64 23 -322 l4
-283 115 0 114 0 -3 323 c-3 305 -5 325 -26 378 -25 63 -70 111 -127 135 -56
23 -197 28 -258 9z"/>
<path d="M14090 2074 c-73 -19 -154 -69 -196 -120 -133 -161 -135 -439 -4
-604 124 -157 417 -188 597 -64 57 40 126 131 143 192 66 236 -3 457 -175 557
-89 53 -250 70 -365 39z m185 -165 c84 -24 129 -84 145 -199 18 -129 -22 -255
-97 -301 -45 -28 -141 -31 -188 -7 -74 39 -108 117 -109 249 0 87 3 102 30
155 32 63 63 92 115 104 48 11 59 11 104 -1z"/>
<path d="M15137 2076 c-58 -21 -114 -62 -147 -108 l-30 -41 0 71 0 72 -110 0
-110 0 0 -420 0 -420 114 0 115 0 3 243 3 242 29 53 c44 78 89 102 195 102
l82 0 -3 108 -3 107 -50 2 c-27 2 -67 -4 -88 -11z"/>
<path d="M15575 2081 c-114 -30 -202 -119 -244 -248 -40 -120 -24 -305 36
-415 56 -103 138 -150 269 -156 114 -5 178 13 236 69 23 21 43 39 45 39 7 0 2
-100 -7 -151 -12 -65 -34 -97 -86 -126 -80 -46 -211 -17 -244 54 l-15 33 -116
0 -117 0 7 -33 c38 -167 218 -257 458 -227 117 15 190 48 251 115 85 93 86 95
90 598 l3 437 -110 0 -111 0 0 -50 c0 -27 -2 -50 -5 -50 -3 0 -20 16 -37 36
-49 56 -100 77 -193 80 -44 2 -93 0 -110 -5z m200 -172 c53 -15 110 -73 125
-129 41 -146 -6 -294 -106 -336 -144 -60 -265 64 -252 260 7 110 47 174 125
202 47 16 58 17 108 3z"/>
<path d="M16490 2077 c-140 -32 -214 -105 -244 -240 l-7 -28 117 3 117 3 12
34 c6 18 23 44 37 56 54 46 182 40 226 -10 44 -51 21 -130 -43 -149 -11 -3
-82 -14 -157 -25 -157 -23 -223 -47 -272 -101 -44 -49 -59 -97 -54 -180 8
-138 98 -220 253 -228 104 -5 178 10 249 53 58 35 61 34 68 -10 3 -19 12 -20
122 -23 107 -2 118 -1 112 14 -18 46 -26 173 -26 406 0 156 -4 268 -11 285
-17 46 -79 102 -139 124 -69 27 -274 36 -360 16z m280 -512 c0 -118 -39 -173
-136 -195 -100 -23 -184 22 -184 97 0 76 43 107 176 129 55 9 106 20 114 25
27 15 30 10 30 -56z"/>
<path d="M17529 2077 c-53 -20 -105 -54 -133 -88 l-25 -29 -3 52 -3 53 -107 3
-108 3 0 -421 0 -420 114 0 115 0 3 278 c3 257 5 280 24 317 24 47 89 85 144
85 49 0 101 -29 125 -70 19 -33 20 -55 23 -322 l3 -288 115 0 115 0 -4 328
c-4 359 -6 374 -65 443 -52 61 -101 81 -207 86 -60 2 -102 -1 -126 -10z"/>
<path d="M19525 2085 c-5 -2 -29 -9 -52 -15 -59 -15 -152 -80 -196 -139 -22
-28 -50 -83 -64 -123 -23 -66 -25 -84 -20 -183 6 -150 29 -208 117 -296 93
-94 146 -113 305 -114 111 0 125 2 180 28 76 35 138 96 176 169 16 32 29 62
29 68 0 6 -36 10 -95 10 l-94 0 -44 -44 c-127 -127 -347 -50 -347 123 0 21 2
21 298 23 l297 3 3 45 c8 113 -47 260 -127 340 -75 75 -142 102 -260 106 -53
2 -100 2 -106 -1z m181 -195 c34 -22 74 -90 74 -128 0 -22 -2 -22 -180 -22
-203 0 -197 -3 -161 76 42 93 175 130 267 74z"/>
<path d="M25260 2075 c-99 -28 -203 -113 -249 -204 -52 -101 -65 -246 -33
-362 36 -128 102 -207 221 -262 55 -26 81 -32 159 -35 201 -9 330 66 401 231
l20 47 -102 0 -103 0 -17 -29 c-26 -44 -99 -76 -172 -75 -65 1 -94 12 -138 52
-24 23 -57 102 -57 139 0 10 58 13 300 13 l300 0 0 69 c0 76 -28 182 -65 247
-33 56 -106 121 -172 151 -72 33 -209 41 -293 18z m183 -169 c61 -22 93 -62
111 -138 l6 -28 -186 0 -186 0 7 28 c13 53 38 92 71 113 65 40 115 47 177 25z"/>
<path d="M26907 2080 c-112 -29 -213 -113 -268 -225 -33 -68 -34 -72 -34 -200
0 -151 9 -189 66 -274 49 -74 131 -131 223 -156 93 -25 232 -17 309 18 92 42
174 133 202 225 6 22 5 22 -92 22 -99 0 -99 0 -121 -30 -51 -69 -180 -96 -265
-55 -49 23 -88 81 -94 140 l-6 45 299 2 299 3 -2 75 c-5 184 -97 329 -248 395
-47 20 -210 29 -268 15z m156 -169 c48 -11 84 -43 108 -96 36 -78 42 -75 -162
-75 l-182 0 6 36 c7 40 46 98 80 116 48 25 96 31 150 19z"/>
<path d="M27909 2077 c-55 -21 -106 -55 -134 -90 l-25 -32 0 58 0 57 -110 0
-110 0 0 -420 0 -420 114 0 115 0 3 278 c3 267 4 279 26 320 55 103 215 109
269 9 16 -28 18 -67 21 -319 l3 -288 115 0 115 0 -3 328 c-3 281 -6 333 -21
373 -21 55 -65 103 -121 131 -52 27 -203 35 -257 15z"/>
<path d="M680 2065 c0 -3 57 -87 126 -188 70 -100 129 -190 131 -199 3 -10
-50 -96 -134 -220 -76 -112 -142 -209 -147 -215 -5 -10 20 -13 118 -13 l125 0
87 130 c48 72 90 130 93 130 3 0 44 -59 89 -130 l84 -130 130 0 130 0 -64 93
c-208 300 -240 349 -234 363 3 8 62 95 131 193 69 98 125 181 125 185 0 4 -55
5 -122 4 l-123 -3 -66 -100 c-36 -55 -71 -100 -77 -100 -7 0 -42 45 -80 100
l-68 100 -127 3 c-70 1 -127 0 -127 -3z"/>
<path d="M2990 1650 l0 -420 115 0 115 0 0 420 0 420 -115 0 -115 0 0 -420z"/>
<path d="M12505 2053 c15 -38 146 -389 219 -583 43 -117 76 -222 76 -242 0
-25 -8 -46 -26 -67 -25 -30 -28 -31 -110 -31 l-84 0 0 -95 0 -94 73 -3 c213
-9 302 39 360 194 9 24 53 142 97 263 45 121 104 281 132 355 27 74 65 177 84
228 l33 93 -120 -3 -121 -3 -89 -279 c-49 -153 -90 -280 -92 -282 -1 -2 -45
125 -96 281 l-93 285 -125 0 c-115 0 -125 -1 -118 -17z"/>
<path d="M18047 2064 c-4 -4 -7 -193 -7 -421 l0 -413 120 0 120 0 -2 418 -3
417 -111 3 c-60 1 -113 -1 -117 -4z"/>
<path d="M18404 2057 c-3 -8 -4 -47 -2 -88 l3 -74 197 -3 197 -2 -214 -242
-215 -242 0 -88 0 -88 385 0 386 0 -3 88 -3 87 -222 3 c-123 1 -223 6 -223 10
1 4 95 113 210 242 l210 235 0 88 0 87 -350 0 c-284 0 -352 -3 -356 -13z"/>
<path d="M25914 1678 c74 -216 139 -405 145 -420 l11 -28 127 0 128 0 138 413
c76 226 138 416 137 420 0 4 -51 6 -112 5 l-113 -3 -85 -277 c-47 -153 -87
-278 -90 -278 -3 0 -40 116 -84 258 -43 141 -82 267 -87 280 -8 21 -13 22
-128 22 l-120 0 133 -392z"/>
<path d="M1782 1813 l3 -88 405 0 405 0 3 88 3 87 -411 0 -411 0 3 -87z"/>
<path d="M1780 1465 l0 -85 410 0 410 0 0 85 0 85 -410 0 -410 0 0 -85z"/>
</g>
</svg>
