<?xml version="1.0" encoding="UTF-8" standalone="no"?>
<!-- Created with Inkscape (http://www.inkscape.org/) -->

<svg
   xmlns:dc="http://purl.org/dc/elements/1.1/"
   xmlns:cc="http://creativecommons.org/ns#"
   xmlns:rdf="http://www.w3.org/1999/02/22-rdf-syntax-ns#"
   xmlns:svg="http://www.w3.org/2000/svg"
   xmlns="http://www.w3.org/2000/svg"
   xmlns:sodipodi="http://sodipodi.sourceforge.net/DTD/sodipodi-0.dtd"
   xmlns:inkscape="http://www.inkscape.org/namespaces/inkscape"
   version="1.1"
   id="svg2"
   xml:space="preserve"
   width="3220"
   height="350"
   viewBox="0 0 3220 350"
   sodipodi:docname="logo.svg"
   inkscape:version="0.92.5 (2060ec1f9f, 2020-04-08)"><metadata
     id="metadata8"><rdf:RDF><cc:Work
         rdf:about=""><dc:format>image/svg+xml</dc:format><dc:type
           rdf:resource="http://purl.org/dc/dcmitype/StillImage" /><dc:title></dc:title></cc:Work></rdf:RDF></metadata><defs
     id="defs6" /><sodipodi:namedview
     pagecolor="#ffffff"
     bordercolor="#666666"
     borderopacity="1"
     objecttolerance="10"
     gridtolerance="10"
     guidetolerance="10"
     inkscape:pageopacity="0"
     inkscape:pageshadow="2"
     inkscape:window-width="1920"
     inkscape:window-height="1012"
     id="namedview4"
     showgrid="false"
     inkscape:zoom="0.45"
     inkscape:cx="1738.188"
     inkscape:cy="322.61294"
     inkscape:window-x="0"
     inkscape:window-y="0"
     inkscape:window-maximized="1"
     inkscape:current-layer="g10"
     units="mm" /><g
     id="g10"
     inkscape:groupmode="layer"
     inkscape:label="ink_ext_XXXXXX"
     transform="matrix(1.3333333,0,0,-1.3333333,0,349.99998)"><g
       id="g12"
       transform="matrix(0.1,0,0,0.1,-9.9999998,-113.33334)"><g
         id="g14"
         transform="scale(1.56442)"><path
           d="M 5273.53,2643.18 H 16949.9 V -169.367 H 5273.53"
           style="fill:#ffffff;fill-opacity:1;fill-rule:nonzero;stroke:none"
           id="path16"
           inkscape:connector-curvature="0" /></g><path
         d="M 0,0 H 8883.32 V 5001.72 H 0 Z"
         style="fill:#ffffff;fill-opacity:1;fill-rule:nonzero;stroke:none"
         id="path18"
         inkscape:connector-curvature="0" /><path
         d="M 0,1.71875 H 8760.16 V 3549.9987 H 0 Z"
         style="fill:#ffffff;fill-opacity:1;fill-rule:nonzero;stroke:none"
         id="path20"
         inkscape:connector-curvature="0" /><path
         d="m 603.711,1660.47 -75.66,109.02 h 72.109 l 40.5,-60.08 40.039,60.08 h 69.891 l -75.668,-107.69 85,-122.42 h -72.07 l -48.082,72.57 -48.09,-72.57 h -70.739 l 82.77,121.09"
         style="fill:#ee2922;fill-opacity:1;fill-rule:nonzero;stroke:none"
         id="path22"
         inkscape:connector-curvature="0" /><path
         d="M 1059.45,1580.35 H 834.692 v 47.6172 h 224.758 z m 0,95.24 H 834.691 v 47.61 h 224.759 v -47.61"
         style="fill:#100f0d;fill-opacity:1;fill-rule:nonzero;stroke:none"
         id="path24"
         inkscape:connector-curvature="0" /><path
         d="m 1168.52,1769.49 h 63.1992 V 1539.381 H 1168.52 Z m 63.2,35.63 h -63.2 v 52.07 h 63.2 v -52.07"
         style="fill:#100f0d;fill-opacity:1;fill-rule:nonzero;stroke:none"
         id="path26"
         inkscape:connector-curvature="0" /><path
         d="m 1272.66,1769.49 h 60.07 v -32.03 h 1.33 c 16.02,25.82 43.64,38.28 70.32,38.28 67.22,0 84.14,-37.85 84.14,-94.8 v -141.56 h -63.21 v 130 c 0,37.81 -11.13,56.52 -40.51,56.52 -34.25,0 -48.94,-19.14 -48.94,-65.9 v -120.62 h -63.2 v 230.11"
         style="fill:#100f0d;fill-opacity:1;fill-rule:nonzero;stroke:none"
         id="path28"
         inkscape:connector-curvature="0" /><path
         d="m 1636.72,1728.12 c -41.41,0 -55.67,-35.62 -55.67,-73.43 0,-36.06 16.49,-73.91 55.67,-73.91 41.83,0 54.3,36.52 54.3,74.34 0,37.38 -13.36,73 -54.3,73 z m 55.19,-159.33 h -0.89 c -14.69,-24.92 -40.51,-35.63 -69.89,-35.63 -69.41,0 -103.28,59.65 -103.28,123.29 0,61.87 34.3,119.29 101.95,119.29 27.15,0 53.87,-11.56 68.56,-34.26 h -0.47 0.9 v 115.71 h 63.2 v -317.81 h -60.08 v 29.41"
         style="fill:#100f0d;fill-opacity:1;fill-rule:nonzero;stroke:none"
         id="path30"
         inkscape:connector-curvature="0" /><path
         d="m 1945.59,1679.14 c -5.79,32.07 -19.57,48.98 -50.32,48.98 -40.04,0 -51.6,-31.17 -52.5,-48.98 z m -102.82,-40.04 c 1.76,-40.08 21.37,-58.32 56.53,-58.32 25.39,0 45.86,15.59 49.84,29.84 h 55.66 c -17.81,-54.29 -55.66,-77.46 -107.73,-77.46 -72.54,0 -117.5,49.85 -117.5,121.06 0,68.98 47.62,121.52 117.5,121.52 78.32,0 116.17,-65.86 111.72,-136.64 h -166.02"
         style="fill:#100f0d;fill-opacity:1;fill-rule:nonzero;stroke:none"
         id="path32"
         inkscape:connector-curvature="0" /><path
         d="m 2208.16,1653.79 c 0,36.48 -14.68,74.33 -55.15,74.33 -41.41,0 -54.77,-36.95 -54.77,-74.33 0,-37.38 14.26,-73.01 55.2,-73.01 41.4,0 54.72,35.63 54.72,73.01 z m -170.89,115.7 h 60.07 v -29.37 h 0.9 c 15.12,24.49 40.04,35.62 68.56,35.62 72.11,0 104.61,-58.32 104.61,-123.75 0,-61.4 -33.83,-118.83 -101.06,-118.83 -27.62,0 -53.87,12.04 -68.98,34.73 h -0.9 V 1458.4 h -63.2 v 311.09"
         style="fill:#100f0d;fill-opacity:1;fill-rule:nonzero;stroke:none"
         id="path34"
         inkscape:connector-curvature="0" /><path
         d="m 2455.2,1679.14 c -5.79,32.07 -19.58,48.98 -50.32,48.98 -40.04,0 -51.64,-31.17 -52.5,-48.98 z m -102.82,-40.04 c 1.76,-40.08 21.37,-58.32 56.53,-58.32 25.35,0 45.86,15.59 49.84,29.84 h 55.63 c -17.82,-54.29 -55.63,-77.46 -107.7,-77.46 -72.58,0 -117.5,49.85 -117.5,121.06 0,68.98 47.62,121.52 117.5,121.52 78.32,0 116.17,-65.86 111.72,-136.64 h -166.02"
         style="fill:#100f0d;fill-opacity:1;fill-rule:nonzero;stroke:none"
         id="path36"
         inkscape:connector-curvature="0" /><path
         d="m 2546.88,1769.49 h 60.07 v -32.03 h 1.33 c 16.02,25.82 43.63,38.28 70.31,38.28 67.23,0 84.14,-37.85 84.14,-94.8 v -141.56 h -63.2 v 130 c 0,37.81 -11.13,56.52 -40.51,56.52 -34.25,0 -48.94,-19.14 -48.94,-65.9 v -120.62 h -63.2 v 230.11"
         style="fill:#100f0d;fill-opacity:1;fill-rule:nonzero;stroke:none"
         id="path38"
         inkscape:connector-curvature="0" /><path
         d="m 2910.94,1728.12 c -41.41,0 -55.67,-35.62 -55.67,-73.43 0,-36.06 16.49,-73.91 55.67,-73.91 41.83,0 54.29,36.52 54.29,74.34 0,37.38 -13.35,73 -54.29,73 z m 55.19,-159.33 h -0.9 c -14.68,-24.92 -40.5,-35.63 -69.88,-35.63 -69.41,0 -103.24,59.65 -103.24,123.29 0,61.87 34.26,119.29 101.91,119.29 27.15,0 53.87,-11.56 68.56,-34.26 h -0.47 0.9 v 115.71 h 63.2 v -317.81 h -60.08 v 29.41"
         style="fill:#100f0d;fill-opacity:1;fill-rule:nonzero;stroke:none"
         id="path40"
         inkscape:connector-curvature="0" /><path
         d="m 3219.8,1679.14 c -5.78,32.07 -19.57,48.98 -50.31,48.98 -40.04,0 -51.6,-31.17 -52.5,-48.98 z m -102.81,-40.04 c 1.8,-40.08 21.37,-58.32 56.53,-58.32 25.39,0 45.86,15.59 49.84,29.84 h 55.66 c -17.81,-54.29 -55.66,-77.46 -107.73,-77.46 -72.54,0 -117.5,49.85 -117.5,121.06 0,68.98 47.62,121.52 117.5,121.52 78.36,0 116.17,-65.86 111.72,-136.64 h -166.02"
         style="fill:#100f0d;fill-opacity:1;fill-rule:nonzero;stroke:none"
         id="path42"
         inkscape:connector-curvature="0" /><path
         d="m 3311.48,1769.49 h 60.08 v -32.03 h 1.33 c 16.06,25.82 43.63,38.28 70.35,38.28 67.19,0 84.1,-37.85 84.1,-94.8 v -141.56 h -63.2 v 130 c 0,37.81 -11.13,56.52 -40.51,56.52 -34.25,0 -48.94,-19.14 -48.94,-65.9 v -120.62 h -63.21 v 230.11"
         style="fill:#100f0d;fill-opacity:1;fill-rule:nonzero;stroke:none"
         id="path44"
         inkscape:connector-curvature="0" /><path
         d="m 3646.6,1769.49 h 46.29 v -42.26 h -46.29 v -113.95 c 0,-21.37 5.35,-26.72 26.72,-26.72 6.68,0 12.89,0.47 19.57,1.8 v -49.41 c -10.66,-1.76 -24.45,-2.23 -36.91,-2.23 -38.75,0 -72.58,8.9 -72.58,54.76 v 135.75 h -38.24 v 42.26 h 38.24 v 69.03 h 63.2 v -69.03"
         style="fill:#100f0d;fill-opacity:1;fill-rule:nonzero;stroke:none"
         id="path46"
         inkscape:connector-curvature="0" /><path
         d="m 3716.05,1539.38 h 63.1992 v 317.813 H 3716.05 Z"
         style="fill:#100f0d;fill-opacity:1;fill-rule:nonzero;stroke:none"
         id="path48"
         inkscape:connector-curvature="0" /><path
         d="m 3933.67,1510.47 c -13.79,-36.95 -35.58,-52.07 -79.22,-52.07 -12.89,0 -25.82,0.9 -38.71,2.22 v 52.08 c 11.99,-0.9 24.46,-2.66 36.96,-2.23 21.79,2.23 28.9,24.92 21.79,43.16 l -81.01,215.86 h 67.65 l 52.07,-157.54 h 0.9 l 50.31,157.54 h 65.43 l -96.17,-259.02"
         style="fill:#100f0d;fill-opacity:1;fill-rule:nonzero;stroke:none"
         id="path50"
         inkscape:connector-curvature="0" /><path
         d="m 4268.83,1580.78 c 43.16,0 56.09,36.95 56.09,73.44 0,36.95 -12.93,73.9 -56.09,73.9 -42.74,0 -55.63,-36.95 -55.63,-73.9 0,-36.49 12.89,-73.44 55.63,-73.44 z m 0,194.96 c 72.54,0 119.29,-48.08 119.29,-121.52 0,-72.97 -46.75,-121.06 -119.29,-121.06 -72.11,0 -118.83,48.09 -118.83,121.06 0,73.44 46.72,121.52 118.83,121.52"
         style="fill:#100f0d;fill-opacity:1;fill-rule:nonzero;stroke:none"
         id="path52"
         inkscape:connector-curvature="0" /><path
         d="m 4411.25,1769.49 h 60.08 v -42.69 h 0.9 c 11.56,28.9 42.73,48.94 73.43,48.94 4.46,0 9.81,-0.9 13.79,-2.22 v -58.75 c -5.78,1.32 -15.11,2.22 -22.69,2.22 -46.29,0 -62.31,-33.4 -62.31,-73.9 v -103.71 h -63.2 v 230.11"
         style="fill:#100f0d;fill-opacity:1;fill-rule:nonzero;stroke:none"
         id="path54"
         inkscape:connector-curvature="0" /><path
         d="m 4736.6,1657.34 c 0,37.39 -12.93,70.78 -53.87,70.78 -35.58,0 -51.17,-31.17 -51.17,-65.42 0,-32.93 12.46,-68.99 51.17,-68.99 36.06,0 53.87,30.7 53.87,63.63 z m 60.08,-103.28 c 0,-37.81 -13.36,-101.91 -119.3,-101.91 -45.39,0 -98.36,21.37 -101.48,73.9 h 62.77 c 5.78,-23.59 24.92,-31.64 47.19,-31.64 35.16,0 51.17,24.07 50.74,57 v 30.27 h -0.9 c -13.79,-24.02 -41.4,-35.63 -68.98,-35.63 -68.99,0 -98.36,52.54 -98.36,115.75 0,59.65 34.26,113.94 98.79,113.94 30.27,0 53.44,-10.23 68.55,-36.95 h 0.9 v 30.7 h 60.08 v -215.43"
         style="fill:#100f0d;fill-opacity:1;fill-rule:nonzero;stroke:none"
         id="path56"
         inkscape:connector-curvature="0" /><path
         d="m 4972.93,1651.99 c -10.7,-9.33 -32.97,-9.76 -52.54,-13.36 -19.57,-3.98 -37.38,-10.66 -37.38,-33.83 0,-23.55 18.24,-29.33 38.71,-29.33 49.41,0 51.21,39.14 51.21,52.93 z m -146.02,46.76 c 3.6,59.18 56.53,76.99 108.17,76.99 45.86,0 101.05,-10.23 101.05,-65.43 v -119.72 c 0,-20.94 2.23,-41.84 8.01,-51.21 h -64.1 c -2.23,7.14 -3.99,14.68 -4.45,22.26 -20.04,-20.9 -49.42,-28.48 -77.47,-28.48 -43.59,0 -78.32,21.8 -78.32,68.99 0,52.07 39.18,64.53 78.32,69.88 38.76,5.78 74.81,4.45 74.81,30.27 0,27.15 -18.71,31.18 -40.98,31.18 -24.02,0 -39.61,-9.81 -41.83,-34.73 h -63.21"
         style="fill:#100f0d;fill-opacity:1;fill-rule:nonzero;stroke:none"
         id="path58"
         inkscape:connector-curvature="0" /><path
         d="m 5076.17,1769.49 h 60.08 v -32.03 h 1.33 c 16.01,25.82 43.63,38.28 70.35,38.28 67.19,0 84.1,-37.85 84.1,-94.8 v -141.56 h -63.2 v 130 c 0,37.81 -11.13,56.52 -40.51,56.52 -34.26,0 -48.94,-19.14 -48.94,-65.9 v -120.62 h -63.21 v 230.11"
         style="fill:#100f0d;fill-opacity:1;fill-rule:nonzero;stroke:none"
         id="path60"
         inkscape:connector-curvature="0" /><path
         d="m 5324.06,1769.49 h 63.2109 V 1539.381 H 5324.06 Z m 63.21,35.63 h -63.21 v 52.07 h 63.21 v -52.07"
         style="fill:#100f0d;fill-opacity:1;fill-rule:nonzero;stroke:none"
         id="path62"
         inkscape:connector-curvature="0" /><path
         d="m 5413.95,1587.03 119.76,134.85 h -110.86 v 47.61 h 194.06 v -47.61 l -119.72,-134.85 h 128.2 v -47.65 h -211.44 v 47.65"
         style="fill:#100f0d;fill-opacity:1;fill-rule:nonzero;stroke:none"
         id="path64"
         inkscape:connector-curvature="0" /><path
         d="m 5805.2,1679.14 c -5.79,32.07 -19.58,48.98 -50.32,48.98 -40.04,0 -51.6,-31.17 -52.5,-48.98 z m -102.82,-40.04 c 1.76,-40.08 21.37,-58.32 56.53,-58.32 25.35,0 45.86,15.59 49.84,29.84 h 55.63 c -17.78,-54.29 -55.63,-77.46 -107.7,-77.46 -72.54,0 -117.5,49.85 -117.5,121.06 0,68.98 47.62,121.52 117.5,121.52 78.32,0 116.17,-65.86 111.72,-136.64 h -166.02"
         style="fill:#100f0d;fill-opacity:1;fill-rule:nonzero;stroke:none"
         id="path66"
         inkscape:connector-curvature="0" /><path
         d="m 6005.94,1728.12 c -41.41,0 -55.67,-35.62 -55.67,-73.43 0,-36.06 16.49,-73.91 55.67,-73.91 41.83,0 54.29,36.52 54.29,74.34 0,37.38 -13.35,73 -54.29,73 z m 55.19,-159.33 h -0.9 c -14.68,-24.92 -40.5,-35.63 -69.88,-35.63 -69.45,0 -103.28,59.65 -103.28,123.29 0,61.87 34.3,119.29 101.95,119.29 27.15,0 53.83,-11.56 68.52,-34.26 h -0.43 0.9 v 115.71 h 63.2 v -317.81 h -60.08 v 29.41"
         style="fill:#100f0d;fill-opacity:1;fill-rule:nonzero;stroke:none"
         id="path68"
         inkscape:connector-curvature="0" /><path
         d="m 6351.72,1798.44 h -95.24 v 58.75 h 260.4 v -58.75 h -95.28 v -259.06 h -69.88 v 259.06"
         style="fill:#100f0d;fill-opacity:1;fill-rule:nonzero;stroke:none"
         id="path70"
         inkscape:connector-curvature="0" /><path
         d="m 6544.45,1857.19 h 237.66 v -58.75 h -167.77 v -68.09 h 153.98 v -54.3 h -153.98 v -77.89 h 171.32 v -58.78 h -241.21 v 317.81"
         style="fill:#100f0d;fill-opacity:1;fill-rule:nonzero;stroke:none"
         id="path72"
         inkscape:connector-curvature="0" /><path
         d="m 6884.92,1598.16 h 62.31 c 40.5,0 79.25,24.93 79.25,95.24 0,64.1 -22.26,105.04 -91.71,105.04 h -49.85 z m -69.88,259.03 h 137.11 c 82.34,0 144.18,-51.64 144.18,-157.11 0,-92.15 -47.15,-160.7 -144.18,-160.7 h -137.11 v 317.81"
         style="fill:#100f0d;fill-opacity:1;fill-rule:nonzero;stroke:none"
         id="path74"
         inkscape:connector-curvature="0" /><path
         d="m 7398.98,1679.14 c -5.78,32.07 -19.57,48.98 -50.31,48.98 -40.04,0 -51.6,-31.17 -52.5,-48.98 z m -102.81,-40.04 c 1.76,-40.08 21.37,-58.32 56.53,-58.32 25.35,0 45.85,15.59 49.84,29.84 h 55.62 c -17.77,-54.29 -55.62,-77.46 -107.69,-77.46 -72.54,0 -117.5,49.85 -117.5,121.06 0,68.98 47.62,121.52 117.5,121.52 78.32,0 116.17,-65.86 111.72,-136.64 h -166.02"
         style="fill:#100f0d;fill-opacity:1;fill-rule:nonzero;stroke:none"
         id="path76"
         inkscape:connector-curvature="0" /><path
         d="m 7609.06,1539.38 h -70.35 l -78.75,230.11 h 66.29 l 48.52,-157.11 h 0.89 l 48.52,157.11 h 62.77 l -77.89,-230.11"
         style="fill:#100f0d;fill-opacity:1;fill-rule:nonzero;stroke:none"
         id="path78"
         inkscape:connector-curvature="0" /><path
         d="m 7850.27,1679.14 c -5.78,32.07 -19.57,48.98 -50.27,48.98 -40.08,0 -51.64,-31.17 -52.54,-48.98 z m -102.81,-40.04 c 1.8,-40.08 21.37,-58.32 56.52,-58.32 25.4,0 45.86,15.59 49.85,29.84 h 55.66 c -17.81,-54.29 -55.66,-77.46 -107.73,-77.46 -72.54,0 -117.5,49.85 -117.5,121.06 0,68.98 47.62,121.52 117.5,121.52 78.36,0 116.17,-65.86 111.72,-136.64 h -166.02"
         style="fill:#100f0d;fill-opacity:1;fill-rule:nonzero;stroke:none"
         id="path80"
         inkscape:connector-curvature="0" /><path
         d="m 7941.95,1769.49 h 60.08 v -32.03 h 1.37 c 16.01,25.82 43.59,38.28 70.31,38.28 67.23,0 84.14,-37.85 84.14,-94.8 v -141.56 h -63.2 v 130 c 0,37.81 -11.13,56.52 -40.51,56.52 -34.3,0 -48.98,-19.14 -48.98,-65.9 v -120.62 h -63.21 v 230.11"
         style="fill:#100f0d;fill-opacity:1;fill-rule:nonzero;stroke:none"
         id="path82"
         inkscape:connector-curvature="0" /><path
         d="m 8277.07,1769.49 h 46.33 v -42.26 h -46.33 v -113.95 c 0,-21.37 5.35,-26.72 26.72,-26.72 6.68,0 12.93,0.47 19.61,1.8 v -49.41 c -10.7,-1.76 -24.49,-2.23 -36.95,-2.23 -38.72,0 -72.54,8.9 -72.54,54.76 v 135.75 h -38.29 v 42.26 h 38.29 v 69.03 h 63.16 v -69.03"
         style="fill:#100f0d;fill-opacity:1;fill-rule:nonzero;stroke:none"
         id="path84"
         inkscape:connector-curvature="0" /><path
         d="M 794.219,2908.59 H 497.66 v 271.25 h 918.79 V 2908.59 H 1120.04 V 2121.64 H 794.219 v 786.95"
         style="fill:#ee2922;fill-opacity:1;fill-rule:nonzero;stroke:none"
         id="path86"
         inkscape:connector-curvature="0" /><path
         d="m 1467.11,3179.84 h 891.91 v -271.25 h -565.9 v -131.83 h 565.9 v -252.03 h -565.9 v -131.88 h 566.06 v -271.21 h -892.07 v 1058.2"
         style="fill:#ee2922;fill-opacity:1;fill-rule:nonzero;stroke:none"
         id="path88"
         inkscape:connector-curvature="0" /><path
         d="m 2739.88,2392.85 h 127.5 c 203.09,0 232.78,164.57 232.78,263.99 0,66.56 -20.86,251.75 -256.53,251.75 h -103.75 z m -325.97,786.99 h 535 c 352.65,0 477.26,-260.86 477.26,-527.54 0,-324.64 -171.91,-530.66 -540.94,-530.66 h -471.32 v 1058.2"
         style="fill:#ee2922;fill-opacity:1;fill-rule:nonzero;stroke:none"
         id="path90"
         inkscape:connector-curvature="0" /><path
         d="m 3894.65,2529.41 -99.45,164.93 -97,-164.93 h -238.86 l 226.75,333.48 -218.36,318.99 h 238.99 l 88.48,-157.7 91.01,157.7 h 238.91 l -218.32,-318.99 226.75,-333.48 h -238.9"
         style="fill:#ee2922;fill-opacity:1;fill-rule:nonzero;stroke:none"
         id="path92"
         inkscape:connector-curvature="0" /><g
         id="g94"
         transform="scale(10)"><g
           aria-label="EuropeanClimatePactIstanbul"
           transform="matrix(1,0,0,-1,432.805,211.252)"
           style="font-variant:normal;font-weight:normal;font-size:149px;font-family:Helvetica;-inkscape-font-specification:Helvetica;writing-mode:lr-tb;fill:#000000;fill-opacity:1;fill-rule:nonzero;stroke:none"
           id="text98"><path
             d="m 12.731934,-106.87549 h 77.919433 v 13.095705 H 26.846191 v 32.448242 h 59.003418 v 12.368164 H 26.846191 v 36.231445 H 91.742676 V 0 H 12.731934 Z m 39.505371,0 z"
             id="path100"
             inkscape:connector-curvature="0" /><path
             d="m 122.08222,-77.919434 v 51.728028 q 0,5.96582 1.8916,9.749023 3.49219,6.9843752 13.02295,6.9843752 13.67774,0 18.625,-12.2226562 2.6919,-6.547852 2.6919,-17.970215 v -38.268555 h 13.0957 V 0 h -12.36816 l 0.1455,-11.495117 q -2.54638,4.4379881 -6.32959,7.4936522 -7.49365,6.1113281 -18.18847,6.1113281 -16.66065,0 -22.69922,-11.1313477 -3.27393,-5.9658206 -3.27393,-15.9331056 v -52.964844 z m 17.97022,-1.891601 z"
             id="path102"
             inkscape:connector-curvature="0" /><path
             d="m 192.19429,-77.919434 h 12.44092 v 13.459473 q 1.52783,-3.928711 7.49365,-9.530762 5.96582,-5.674804 13.75049,-5.674804 0.36377,0 1.23682,0.07275 0.87304,0.07275 2.98291,0.291015 v 13.823242 q -1.16407,-0.218261 -2.18262,-0.291015 -0.9458,-0.07275 -2.10987,-0.07275 -9.89453,0 -15.20556,6.402344 -5.31104,6.329589 -5.31104,14.623535 V 0 h -13.0957 z"
             id="path104"
             inkscape:connector-curvature="0" /><path
             d="m 272.36792,-8.4394531 q 13.02295,0 17.82471,-9.8217769 4.87451,-9.894532 4.87451,-21.97168 0,-10.913086 -3.49219,-17.751953 -5.5293,-10.767578 -19.06152,-10.767578 -12.0044,0 -17.46094,9.166992 -5.45654,9.166992 -5.45654,22.117187 0,12.440918 5.45654,20.734864 5.45654,8.2939449 17.31543,8.2939449 z m 0.50928,-71.7353519 q 15.06006,0 25.46386,10.040039 10.40381,10.040039 10.40381,29.538086 0,18.843262 -9.16699,31.1386722 -9.16699,12.2954101 -28.44678,12.2954101 -16.07861,0 -25.53662,-10.840332 -9.45801,-10.9130863 -9.45801,-29.2470703 0,-19.643555 9.96729,-31.28418 9.96728,-11.640625 26.77344,-11.640625 z m -0.43653,0.36377 z"
             id="path106"
             inkscape:connector-curvature="0" /><path
             d="m 357.17627,-8.8032227 q 9.16699,0 15.20557,-7.6391603 6.11132,-7.711914 6.11132,-22.990234 0,-9.3125 -2.69189,-16.00586 -5.09277,-12.877441 -18.625,-12.877441 -13.60498,0 -18.625,13.604981 -2.6919,7.27539 -2.6919,18.479492 0,9.021484 2.6919,15.351074 5.09277,12.0771483 18.625,12.0771483 z M 323.27295,-77.555664 h 12.73193 v 10.331055 q 3.92871,-5.311036 8.58496,-8.221192 6.62061,-4.365234 15.56934,-4.365234 13.24121,0 22.48096,10.185547 9.23974,10.112793 9.23974,28.956054 0,25.463868 -13.31396,36.3769535 -8.43946,6.9116211 -19.64356,6.9116211 -8.80322,0 -14.76904,-3.855957 -3.49219,-2.1826172 -7.78467,-7.4936524 V 31.065918 h -13.0957 z"
             id="path108"
             inkscape:connector-curvature="0" /><path
             d="m 439.58377,-79.665527 q 8.29395,0 16.07861,3.928711 7.78467,3.855957 11.85889,10.040039 3.92871,5.893066 5.23828,13.750488 1.16406,5.383789 1.16406,17.169922 H 416.8118 q 0.36377,11.858887 5.60205,19.061523 5.23828,7.1298831 16.22412,7.1298831 10.2583,0 16.36963,-6.7661131 3.49219,-3.928711 4.94726,-9.094238 h 12.87745 q -0.50928,4.29248 -3.41944,9.603515 -2.8374,5.2382814 -6.40234,8.5849611 -5.96582,5.82031246 -14.76904,7.8574218 -4.72901,1.1640625 -10.69483,1.1640625 -14.55078,0 -24.66357,-10.5493164 -10.1128,-10.62207 -10.1128,-29.683594 0,-18.770508 10.18555,-30.483886 10.18555,-11.713379 26.62793,-11.713379 z m 20.88037,34.485351 q -0.80029,-8.512207 -3.71045,-13.60498 -5.38379,-9.458008 -17.97021,-9.458008 -9.02149,0 -15.13281,6.547852 -6.11133,6.475097 -6.4751,16.515136 z m -22.11719,-34.630859 z"
             id="path110"
             inkscape:connector-curvature="0" /><path
             d="m 500.01956,-20.734863 q 0,5.674804 4.14697,8.94873 4.14698,3.273926 9.82178,3.273926 6.91162,0 13.38672,-3.201172 10.91309,-5.311035 10.91309,-17.388183 v -10.549317 q -2.40088,1.527832 -6.18409,2.546387 -3.7832,1.018555 -7.42089,1.455078 l -7.93018,1.018555 q -7.12988,0.9458 -10.69482,2.98291 -6.03858,3.419433 -6.03858,10.913086 z m 31.7207,-26.482422 q 4.51075,-0.582031 6.03858,-3.783203 0.87305,-1.746094 0.87305,-5.02002 0,-6.693359 -4.80176,-9.676269 -4.72901,-3.055664 -13.60498,-3.055664 -10.2583,0 -14.55078,5.529296 -2.40088,3.055665 -3.12842,9.094239 h -12.22266 q 0.36377,-14.405274 9.3125,-20.007324 9.02149,-5.674805 20.88037,-5.674805 13.75049,0 22.33545,5.238281 8.51221,5.238281 8.51221,16.296875 v 44.88916 q 0,2.03711 0.80029,3.273926 0.87305,1.2368164 3.56494,1.2368164 0.87305,0 1.96436,-0.072754 1.09131,-0.1455078 2.32812,-0.3637695 v 9.67626953 q -3.05566,0.87304687 -4.65625,1.09130857 -1.60058,0.2182617 -4.36523,0.2182617 -6.76611,0 -9.82178,-4.8017578 -1.60058,-2.5463867 -2.25537,-7.2026369 -4.00146,5.2382815 -11.49512,9.0942385 -7.49365,3.855957 -16.51513,3.855957 -10.84033,0 -17.75196,-6.5478515 -6.83886,-6.620605 -6.83886,-16.515137 0,-10.840332 6.76611,-16.806152 6.76611,-5.96582 17.75195,-7.348145 z m -10.84033,-32.59375 z"
             id="path112"
             inkscape:connector-curvature="0" /><path
             d="m 572.82349,-77.919434 h 12.44091 v 11.058594 q 5.5293,-6.838867 11.71338,-9.821777 6.18409,-2.98291 13.75049,-2.98291 16.58789,0 22.4082,11.567871 3.20118,6.32959 3.20118,18.115722 V 0 h -13.31397 v -49.108887 q 0,-7.129883 -2.10986,-11.495117 -3.49219,-7.275391 -12.65918,-7.275391 -4.65625,0 -7.63916,0.945801 -5.38379,1.600586 -9.45801,6.402344 -3.27393,3.855957 -4.29248,8.00293 -0.9458,4.074218 -0.9458,11.713379 V 0 h -13.0957 z m 30.7749,-1.891601 z"
             id="path114"
             inkscape:connector-curvature="0" /><path
             d="m 702.4483,-109.78564 q 20.29834,0 31.50244,10.69482 11.20411,10.694824 12.44092,24.299804 H 732.2774 q -2.40087,-10.331054 -9.60351,-16.369629 -7.12988,-6.038574 -20.08008,-6.038574 -15.7876,0 -25.53662,11.131348 -9.67627,11.058594 -9.67627,33.976074 0,18.770508 8.73047,30.483887 8.80322,11.6406248 26.19141,11.6406248 16.00585,0 24.37255,-12.2954098 4.43799,-6.475098 6.62061,-17.024414 h 14.11426 q -1.8916,16.878906 -12.51367,28.301269 -12.73194,13.7504884 -34.33985,13.7504884 -18.625,0 -31.28418,-11.2768554 -16.66064,-14.914551 -16.66064,-46.053223 0,-23.645019 12.51367,-38.777832 13.53223,-16.442378 37.32275,-16.442378 z m -2.91015,0 z"
             id="path116"
             inkscape:connector-curvature="0" /><path
             d="m 763.60931,-106.87549 h 13.09571 V 0 h -13.09571 z"
             id="path118"
             inkscape:connector-curvature="0" /><path
             d="m 796.32349,-77.555664 h 13.31396 V 0 h -13.31396 z m 0,-29.319826 h 13.31396 v 14.841799 h -13.31396 z"
             id="path120"
             inkscape:connector-curvature="0" /><path
             d="m 829.40149,-77.919434 h 12.95019 v 11.058594 q 4.65625,-5.747558 8.43946,-8.366699 6.4751,-4.437988 14.69629,-4.437988 9.3125,0 14.9873,4.583496 3.20117,2.61914 5.82031,7.711914 4.36524,-6.256836 10.2583,-9.239746 5.89307,-3.055664 13.24122,-3.055664 15.71484,0 21.38964,11.349609 3.05567,6.111328 3.05567,16.442383 V 0 h -13.60498 v -54.128906 q 0,-7.784668 -3.92871,-10.694824 -3.85596,-2.910157 -9.45801,-2.910157 -7.71192,0 -13.31397,5.165528 -5.52929,5.165527 -5.52929,17.242675 V 0 h -13.31397 v -50.85498 q 0,-7.930176 -1.8916,-11.567872 -2.98291,-5.456543 -11.13135,-5.456543 -7.4209,0 -13.53222,5.747559 -6.03858,5.747559 -6.03858,20.807617 V 0 h -13.0957 z"
             id="path122"
             inkscape:connector-curvature="0" /><path
             d="m 963.55853,-20.734863 q 0,5.674804 4.14698,8.94873 4.14697,3.273926 9.82177,3.273926 6.91162,0 13.38672,-3.201172 10.9131,-5.311035 10.9131,-17.388183 v -10.549317 q -2.40089,1.527832 -6.18409,2.546387 -3.78321,1.018555 -7.4209,1.455078 l -7.93018,1.018555 q -7.12988,0.9458 -10.69482,2.98291 -6.03858,3.419433 -6.03858,10.913086 z m 31.72071,-26.482422 q 4.51074,-0.582031 6.03856,-3.783203 0.8731,-1.746094 0.8731,-5.02002 0,-6.693359 -4.8018,-9.676269 -4.729,-3.055664 -13.60498,-3.055664 -10.2583,0 -14.55078,5.529296 -2.40088,3.055665 -3.12842,9.094239 h -12.22266 q 0.36377,-14.405274 9.3125,-20.007324 9.02149,-5.674805 20.88037,-5.674805 13.75049,0 22.33547,5.238281 8.5122,5.238281 8.5122,16.296875 v 44.88916 q 0,2.03711 0.8003,3.273926 0.873,1.2368164 3.5649,1.2368164 0.8731,0 1.9644,-0.072754 1.0913,-0.1455078 2.3281,-0.3637695 v 9.67626953 q -3.0557,0.87304687 -4.6562,1.09130857 -1.6006,0.2182617 -4.3653,0.2182617 -6.7661,0 -9.8218,-4.8017578 -1.6005,-2.5463867 -2.2553,-7.2026369 -4.00149,5.2382815 -11.49514,9.0942385 -7.49366,3.855957 -16.51514,3.855957 -10.84033,0 -17.75195,-6.5478515 -6.83887,-6.620605 -6.83887,-16.515137 0,-10.840332 6.76611,-16.806152 6.76611,-5.96582 17.75195,-7.348145 z m -10.84034,-32.59375 z"
             id="path124"
             inkscape:connector-curvature="0" /><path
             d="m 1038.9817,-99.672852 h 13.2412 v 21.753418 h 12.4409 v 10.694825 h -12.4409 v 50.85498 q 0,4.074219 2.7646,5.456543 1.5279,0.800293 5.0928,0.800293 0.9458,0 2.0371,0 1.0913,-0.07275 2.5464,-0.218262 V 0 q -2.2554,0.65478516 -4.729,0.94580078 -2.4009,0.29101562 -5.2383,0.29101562 -9.167,0 -12.4409,-4.65625 -3.2739,-4.7290039 -3.2739,-12.2226564 v -51.582519 h -10.5493 v -10.694825 h 10.5493 z"
             id="path126"
             inkscape:connector-curvature="0" /><path
             d="m 1110.2328,-79.665527 q 8.2939,0 16.0786,3.928711 7.7847,3.855957 11.8589,10.040039 3.9287,5.893066 5.2383,13.750488 1.164,5.383789 1.164,17.169922 h -57.1118 q 0.3638,11.858887 5.6021,19.061523 5.2382,7.1298831 16.2241,7.1298831 10.2583,0 16.3696,-6.7661131 3.4922,-3.928711 4.9473,-9.094238 h 12.8774 q -0.5093,4.29248 -3.4194,9.603515 -2.8374,5.2382814 -6.4024,8.5849611 -5.9658,5.82031246 -14.769,7.8574218 -4.729,1.1640625 -10.6948,1.1640625 -14.5508,0 -24.6636,-10.5493164 -10.1128,-10.62207 -10.1128,-29.683594 0,-18.770508 10.1856,-30.483886 10.1855,-11.713379 26.6279,-11.713379 z m 20.8804,34.485351 q -0.8003,-8.512207 -3.7105,-13.60498 -5.3838,-9.458008 -17.9702,-9.458008 -9.0215,0 -15.1328,6.547852 -6.1113,6.475097 -6.4751,16.515136 z m -22.1172,-34.630859 z"
             id="path128"
             inkscape:connector-curvature="0" /><path
             d="m 1163.757,-106.87549 h 48.0903 q 14.2598,0 22.9902,8.075685 8.7305,8.00293 8.7305,22.553711 0,12.513672 -7.7847,21.826172 -7.7846,9.239746 -23.936,9.239746 H 1178.235 V 0 h -14.478 z m 65.1875,30.70215 q 0,-11.786133 -8.7305,-16.005859 -4.8018,-2.255371 -13.1685,-2.255371 h -28.8105 v 37.031738 h 28.8105 q 9.7491,0 15.7876,-4.146973 6.1114,-4.146972 6.1114,-14.623535 z"
             id="path130"
             inkscape:connector-curvature="0" /><path
             d="m 1270.0515,-20.734863 q 0,5.674804 4.147,8.94873 4.147,3.273926 9.8218,3.273926 6.9116,0 13.3867,-3.201172 10.9131,-5.311035 10.9131,-17.388183 v -10.549317 q -2.4009,1.527832 -6.1841,2.546387 -3.7832,1.018555 -7.4209,1.455078 l -7.9302,1.018555 q -7.1299,0.9458 -10.6948,2.98291 -6.0386,3.419433 -6.0386,10.913086 z m 31.7207,-26.482422 q 4.5108,-0.582031 6.0386,-3.783203 0.873,-1.746094 0.873,-5.02002 0,-6.693359 -4.8017,-9.676269 -4.729,-3.055664 -13.605,-3.055664 -10.2583,0 -14.5508,5.529296 -2.4009,3.055665 -3.1284,9.094239 h -12.2227 q 0.3638,-14.405274 9.3125,-20.007324 9.0215,-5.674805 20.8804,-5.674805 13.7505,0 22.3355,5.238281 8.5122,5.238281 8.5122,16.296875 v 44.88916 q 0,2.03711 0.8003,3.273926 0.873,1.2368164 3.5649,1.2368164 0.8731,0 1.9644,-0.072754 1.0913,-0.1455078 2.3281,-0.3637695 v 9.67626953 q -3.0557,0.87304687 -4.6563,1.09130857 -1.6005,0.2182617 -4.3652,0.2182617 -6.7661,0 -9.8218,-4.8017578 -1.6006,-2.5463867 -2.2553,-7.2026369 -4.0015,5.2382815 -11.4952,9.0942385 -7.4936,3.855957 -16.5151,3.855957 -10.8403,0 -17.752,-6.5478515 -6.8388,-6.620605 -6.8388,-16.515137 0,-10.840332 6.7661,-16.806152 6.7661,-5.96582 17.7519,-7.348145 z m -10.8403,-32.59375 z"
             id="path132"
             inkscape:connector-curvature="0" /><path
             d="m 1372.9028,-80.174805 q 13.1685,0 21.3897,6.402344 8.2939,6.402344 9.9673,22.044434 h -12.732 q -1.164,-7.202637 -5.311,-11.931641 -4.147,-4.801758 -13.314,-4.801758 -12.5136,0 -17.8974,12.222656 -3.4922,7.930176 -3.4922,19.570801 0,11.713379 4.9472,19.716309 4.9473,8.0029295 15.5694,8.0029295 8.1484,0 12.8774,-4.9472655 4.8018,-5.02002 6.6206,-13.677734 h 12.732 q -2.1827,15.496582 -10.9131,22.6992183 -8.7305,7.1298828 -22.3355,7.1298828 -15.2783,0 -24.3725,-11.1313477 -9.0943,-11.2041014 -9.0943,-27.9375004 0,-20.516601 9.9673,-31.938964 9.9673,-11.422364 25.3911,-11.422364 z m -2.0371,0.36377 z"
             id="path134"
             inkscape:connector-curvature="0" /><path
             d="m 1419.9746,-99.672852 h 13.2412 v 21.753418 h 12.4409 v 10.694825 h -12.4409 v 50.85498 q 0,4.074219 2.7647,5.456543 1.5278,0.800293 5.0927,0.800293 0.9458,0 2.0372,0 1.0913,-0.07275 2.5463,-0.218262 V 0 q -2.2553,0.65478516 -4.729,0.94580078 -2.4008,0.29101562 -5.2382,0.29101562 -9.167,0 -12.441,-4.65625 -3.2739,-4.7290039 -3.2739,-12.2226564 v -51.582519 h -10.5493 v -10.694825 h 10.5493 z"
             id="path136"
             inkscape:connector-curvature="0" /><path
             d="m 1463.7975,-106.87549 h 14.6235 V 0 h -14.6235 z"
             id="path138"
             inkscape:connector-curvature="0" /><path
             d="m 1507.9841,-24.445312 q 0.5821,6.547851 3.274,10.040039 4.9472,6.3295894 17.1699,6.3295894 7.2754,0 12.8047,-3.1284184 5.5293,-3.201171 5.5293,-9.821777 0,-5.020019 -4.438,-7.63916 -2.8374,-1.600586 -11.2041,-3.710449 l -10.4038,-2.619141 q -9.9673,-2.473633 -14.6963,-5.529297 -8.4395,-5.311035 -8.4395,-14.696289 0,-11.058594 7.9302,-17.897461 8.0029,-6.838867 21.4624,-6.838867 17.6064,0 25.3911,10.331055 4.8745,6.547851 4.729,14.114258 h -12.3681 q -0.3638,-4.437989 -3.1285,-8.075684 -4.5107,-5.165527 -15.6421,-5.165527 -7.4209,0 -11.2768,2.837402 -3.7832,2.837402 -3.7832,7.493652 0,5.092774 5.02,8.148438 2.9102,1.818847 8.585,3.201172 l 8.6577,2.109863 q 14.1142,3.419434 18.916,6.620605 7.6392,5.02002 7.6392,15.787598 0,10.403809 -7.9302,17.9702149 -7.8574,7.5664063 -24.0088,7.5664063 -17.3882,0 -24.6636,-7.8574219 -7.2026,-7.9301763 -7.7119,-19.5708003 z m 19.3526,-55.365723 z"
             id="path140"
             inkscape:connector-curvature="0" /><path
             d="m 1577.3186,-99.672852 h 13.2412 v 21.753418 h 12.4409 v 10.694825 h -12.4409 v 50.85498 q 0,4.074219 2.7647,5.456543 1.5278,0.800293 5.0927,0.800293 0.9458,0 2.0371,0 1.0914,-0.07275 2.5464,-0.218262 V 0 q -2.2553,0.65478516 -4.729,0.94580078 -2.4009,0.29101562 -5.2383,0.29101562 -9.1669,0 -12.4409,-4.65625 -3.2739,-4.7290039 -3.2739,-12.2226564 v -51.582519 h -10.5493 v -10.694825 h 10.5493 z"
             id="path142"
             inkscape:connector-curvature="0" /><path
             d="m 1626.1615,-20.734863 q 0,5.674804 4.147,8.94873 4.1469,3.273926 9.8217,3.273926 6.9117,0 13.3868,-3.201172 10.9131,-5.311035 10.9131,-17.388183 v -10.549317 q -2.4009,1.527832 -6.1841,2.546387 -3.7832,1.018555 -7.4209,1.455078 l -7.9302,1.018555 q -7.1299,0.9458 -10.6948,2.98291 -6.0386,3.419433 -6.0386,10.913086 z m 31.7207,-26.482422 q 4.5107,-0.582031 6.0386,-3.783203 0.873,-1.746094 0.873,-5.02002 0,-6.693359 -4.8017,-9.676269 -4.729,-3.055664 -13.605,-3.055664 -10.2583,0 -14.5508,5.529296 -2.4009,3.055665 -3.1284,9.094239 h -12.2227 q 0.3638,-14.405274 9.3125,-20.007324 9.0215,-5.674805 20.8804,-5.674805 13.7505,0 22.3354,5.238281 8.5123,5.238281 8.5123,16.296875 v 44.88916 q 0,2.03711 0.8002,3.273926 0.8731,1.2368164 3.565,1.2368164 0.873,0 1.9643,-0.072754 1.0914,-0.1455078 2.3282,-0.3637695 v 9.67626953 q -3.0557,0.87304687 -4.6563,1.09130857 -1.6006,0.2182617 -4.3652,0.2182617 -6.7661,0 -9.8218,-4.8017578 -1.6006,-2.5463867 -2.2554,-7.2026369 -4.0014,5.2382815 -11.4951,9.0942385 -7.4936,3.855957 -16.5151,3.855957 -10.8403,0 -17.752,-6.5478515 -6.8388,-6.620605 -6.8388,-16.515137 0,-10.840332 6.7661,-16.806152 6.7661,-5.96582 17.7519,-7.348145 z m -10.8403,-32.59375 z"
             id="path144"
             inkscape:connector-curvature="0" /><path
             d="m 1698.9656,-77.919434 h 12.4409 v 11.058594 q 5.5293,-6.838867 11.7134,-9.821777 6.1841,-2.98291 13.7505,-2.98291 16.5879,0 22.4082,11.567871 3.2011,6.32959 3.2011,18.115722 V 0 h -13.3139 v -49.108887 q 0,-7.129883 -2.1099,-11.495117 -3.4922,-7.275391 -12.6592,-7.275391 -4.6562,0 -7.6391,0.945801 -5.3838,1.600586 -9.458,6.402344 -3.274,3.855957 -4.2925,8.00293 -0.9458,4.074218 -0.9458,11.713379 V 0 h -13.0957 z m 30.7749,-1.891601 z"
             id="path146"
             inkscape:connector-curvature="0" /><path
             d="m 1780.791,-107.23926 h 12.7319 v 38.777834 q 4.2925,-5.602051 10.2584,-8.512207 5.9658,-2.98291 12.9501,-2.98291 14.5508,0 23.5723,10.040039 9.0942,9.967285 9.0942,29.465332 0,18.479492 -8.9487,30.7021486 -8.9487,12.2226562 -24.8091,12.2226562 -8.8759,0 -14.9873,-4.2924805 -3.6377,-2.5463867 -7.7846,-8.1484375 V 0 h -12.0772 z m 34.0488,98.1450217 q 10.6221,0 15.8604,-8.4394527 5.311,-8.439454 5.311,-22.262696 0,-12.29541 -5.311,-20.371093 -5.2383,-8.075684 -15.4966,-8.075684 -8.9487,0 -15.7148,6.620605 -6.6934,6.620606 -6.6934,21.826172 0,10.98584 2.7647,17.824707 5.1655,12.8774417 19.2797,12.8774417 z"
             id="path148"
             inkscape:connector-curvature="0" /><path
             d="m 1877.7493,-77.919434 v 51.728028 q 0,5.96582 1.8916,9.749023 3.4922,6.9843752 13.0229,6.9843752 13.6778,0 18.625,-12.2226562 2.6919,-6.547852 2.6919,-17.970215 v -38.268555 h 13.0957 V 0 h -12.3681 l 0.1455,-11.495117 q -2.5464,4.4379881 -6.3296,7.4936522 -7.4937,6.1113281 -18.1885,6.1113281 -16.6607,0 -22.6992,-11.1313477 -3.274,-5.9658206 -3.274,-15.9331056 v -52.964844 z m 17.9702,-1.891601 z"
             id="path150"
             inkscape:connector-curvature="0" /><path
             d="m 1947.8613,-106.87549 h 13.0957 V 0 h -13.0957 z"
             id="path152"
             inkscape:connector-curvature="0" /></g></g></g></g></svg>