<?xml version="1.0" encoding="UTF-8" standalone="no"?>
<!-- Created with Inkscape (http://www.inkscape.org/) -->

<svg
   xmlns:dc="http://purl.org/dc/elements/1.1/"
   xmlns:cc="http://creativecommons.org/ns#"
   xmlns:rdf="http://www.w3.org/1999/02/22-rdf-syntax-ns#"
   xmlns:svg="http://www.w3.org/2000/svg"
   xmlns="http://www.w3.org/2000/svg"
   xmlns:sodipodi="http://sodipodi.sourceforge.net/DTD/sodipodi-0.dtd"
   xmlns:inkscape="http://www.inkscape.org/namespaces/inkscape"
   version="1.1"
   id="svg2"
   xml:space="preserve"
   width="3125"
   height="235"
   viewBox="0 0 3125 235"
   sodipodi:docname="logo.svg"
   inkscape:version="0.92.5 (2060ec1f9f, 2020-04-08)"><metadata
     id="metadata8"><rdf:RDF><cc:Work
         rdf:about=""><dc:format>image/svg+xml</dc:format><dc:type
           rdf:resource="http://purl.org/dc/dcmitype/StillImage" /><dc:title></dc:title></cc:Work></rdf:RDF></metadata><defs
     id="defs6" /><sodipodi:namedview
     pagecolor="#ffffff"
     bordercolor="#666666"
     borderopacity="1"
     objecttolerance="10"
     gridtolerance="10"
     guidetolerance="10"
     inkscape:pageopacity="0"
     inkscape:pageshadow="2"
     inkscape:window-width="1920"
     inkscape:window-height="1012"
     id="namedview4"
     showgrid="false"
     inkscape:zoom="3.82"
     inkscape:cx="1526.9403"
     inkscape:cy="227.406"
     inkscape:window-x="0"
     inkscape:window-y="0"
     inkscape:window-maximized="1"
     inkscape:current-layer="g10"
     units="mm"
     inkscape:snap-grids="false"
     inkscape:snap-to-guides="true" /><g
     id="g10"
     inkscape:groupmode="layer"
     inkscape:label="ink_ext_XXXXXX"
     transform="matrix(1.3333333,0,0,-1.3333333,0,234.99998)"><path
       d="m 10.896287,20.980918 -7.566,10.902 h 7.2109 l 4.05,-6.00799 4.0039,6.00799 h 6.9891 l -7.5668,-10.76899 8.5,-12.242006 h -7.207 l -4.8082,7.257006 L 9.6931866,8.871922 H 2.619287 l 8.277,12.108996"
       style="fill:#ee2922;fill-opacity:1;fill-rule:nonzero;stroke:none;stroke-width:0.09999999"
       id="path22"
       inkscape:connector-curvature="0" /><path
       d="m 56.470187,12.968917 h -22.4758 v 4.761731 h 22.4758 z m 0,9.524001 h -22.4759 v 4.761 h 22.4759 v -4.761"
       style="fill:#100f0d;fill-opacity:1;fill-rule:nonzero;stroke:none;stroke-width:0.09999999"
       id="path24"
       inkscape:connector-curvature="0" /><path
       d="m 67.377187,31.882918 h 6.31992 V 8.872022 h -6.31992 z m 6.32,3.56301 h -6.32 v 5.207 h 6.32 v -5.207"
       style="fill:#100f0d;fill-opacity:1;fill-rule:nonzero;stroke:none;stroke-width:0.09999999"
       id="path26"
       inkscape:connector-curvature="0" /><path
       d="m 77.791187,31.882918 h 6.007 v -3.20299 h 0.133 c 1.602,2.58199 4.364,3.828 7.032,3.828 6.722,0 8.414,-3.785 8.414,-9.48 V 8.871922 h -6.321 v 12.999996 c 0,3.78101 -1.113,5.652 -4.051,5.652 -3.425,0 -4.894,-1.914 -4.894,-6.58999 V 8.871922 h -6.32 v 23.010996"
       style="fill:#100f0d;fill-opacity:1;fill-rule:nonzero;stroke:none;stroke-width:0.09999999"
       id="path28"
       inkscape:connector-curvature="0" /><path
       d="m 114.19719,27.745918 c -4.141,0 -5.567,-3.56199 -5.567,-7.34299 0,-3.606 1.649,-7.391011 5.567,-7.391011 4.183,0 5.43,3.652001 5.43,7.434011 0,3.738 -1.336,7.29999 -5.43,7.29999 z m 5.519,-15.933001 h -0.089 c -1.469,-2.4919953 -4.051,-3.562995 -6.989,-3.562995 -6.941,0 -10.328,5.964995 -10.328,12.328996 0,6.18701 3.43,11.92901 10.195,11.92901 2.715,0 5.387,-1.15601 6.856,-3.426 h -0.047 0.09 v 11.571 h 6.32 V 8.871922 h -6.008 v 2.940995"
       style="fill:#100f0d;fill-opacity:1;fill-rule:nonzero;stroke:none;stroke-width:0.09999999"
       id="path30"
       inkscape:connector-curvature="0" /><path
       d="m 145.08419,22.847928 c -0.579,3.207 -1.957,4.89799 -5.032,4.89799 -4.004,0 -5.16,-3.117 -5.25,-4.89799 z m -10.282,-4.004 c 0.176,-4.008011 2.137,-5.832011 5.653,-5.832011 2.539,0 4.586,1.559 4.984,2.984011 h 5.566 c -1.781,-5.429006 -5.566,-7.746006 -10.773,-7.746006 -7.254,0 -11.75,4.984995 -11.75,12.106006 0,6.89799 4.762,12.152 11.75,12.152 7.832,0 11.617,-6.58601 11.172,-13.664 h -16.602"
       style="fill:#100f0d;fill-opacity:1;fill-rule:nonzero;stroke:none;stroke-width:0.09999999"
       id="path32"
       inkscape:connector-curvature="0" /><path
       d="m 171.34119,20.312928 c 0,3.648 -1.468,7.43299 -5.515,7.43299 -4.141,0 -5.477,-3.69499 -5.477,-7.43299 0,-3.738 1.426,-7.301011 5.52,-7.301011 4.14,0 5.472,3.563011 5.472,7.301011 z m -17.089,11.56999 h 6.007 v -2.937 h 0.09 c 1.512,2.44901 4.004,3.56201 6.856,3.56201 7.211,0 10.461,-5.832 10.461,-12.375 0,-6.140011 -3.383,-11.883006 -10.106,-11.883006 -2.762,0 -5.387,1.2039997 -6.898,3.472995 h -0.09 V 0.773922 h -6.32 v 31.108996"
       style="fill:#100f0d;fill-opacity:1;fill-rule:nonzero;stroke:none;stroke-width:0.09999999"
       id="path34"
       inkscape:connector-curvature="0" /><path
       d="m 196.04519,22.847928 c -0.579,3.207 -1.958,4.89799 -5.032,4.89799 -4.004,0 -5.164,-3.117 -5.25,-4.89799 z m -10.282,-4.004 c 0.176,-4.008011 2.137,-5.832011 5.653,-5.832011 2.535,0 4.586,1.559 4.984,2.984011 h 5.563 c -1.782,-5.429006 -5.563,-7.746006 -10.77,-7.746006 -7.258,0 -11.75,4.984995 -11.75,12.106006 0,6.89799 4.762,12.152 11.75,12.152 7.832,0 11.617,-6.58601 11.172,-13.664 h -16.602"
       style="fill:#100f0d;fill-opacity:1;fill-rule:nonzero;stroke:none;stroke-width:0.09999999"
       id="path36"
       inkscape:connector-curvature="0" /><path
       d="m 205.21319,31.882918 h 6.007 v -3.20299 h 0.133 c 1.602,2.58199 4.363,3.828 7.031,3.828 6.723,0 8.414,-3.785 8.414,-9.48 V 8.871922 h -6.32 v 12.999996 c 0,3.78101 -1.113,5.652 -4.051,5.652 -3.425,0 -4.894,-1.914 -4.894,-6.58999 V 8.871922 h -6.32 v 23.010996"
       style="fill:#100f0d;fill-opacity:1;fill-rule:nonzero;stroke:none;stroke-width:0.09999999"
       id="path38"
       inkscape:connector-curvature="0" /><path
       d="m 241.61919,27.745918 c -4.141,0 -5.567,-3.56199 -5.567,-7.34299 0,-3.606 1.649,-7.391011 5.567,-7.391011 4.183,0 5.429,3.652001 5.429,7.434011 0,3.738 -1.335,7.29999 -5.429,7.29999 z m 5.519,-15.933001 h -0.09 c -1.468,-2.4919953 -4.05,-3.562995 -6.988,-3.562995 -6.941,0 -10.324,5.964995 -10.324,12.328996 0,6.18701 3.426,11.92901 10.191,11.92901 2.715,0 5.387,-1.15601 6.856,-3.426 h -0.047 0.09 v 11.571 h 6.32 V 8.871922 h -6.008 v 2.940995"
       style="fill:#100f0d;fill-opacity:1;fill-rule:nonzero;stroke:none;stroke-width:0.09999999"
       id="path40"
       inkscape:connector-curvature="0" /><path
       d="m 272.50519,22.847928 c -0.578,3.207 -1.957,4.89799 -5.031,4.89799 -4.004,0 -5.16,-3.117 -5.25,-4.89799 z m -10.281,-4.004 c 0.18,-4.008011 2.137,-5.832011 5.653,-5.832011 2.539,0 4.586,1.559 4.984,2.984011 h 5.566 c -1.781,-5.429006 -5.566,-7.746006 -10.773,-7.746006 -7.254,0 -11.75,4.984995 -11.75,12.106006 0,6.89799 4.762,12.152 11.75,12.152 7.836,0 11.617,-6.58601 11.172,-13.664 h -16.602"
       style="fill:#100f0d;fill-opacity:1;fill-rule:nonzero;stroke:none;stroke-width:0.09999999"
       id="path42"
       inkscape:connector-curvature="0" /><path
       d="m 281.67319,31.882918 h 6.008 v -3.20299 h 0.133 c 1.606,2.58199 4.363,3.828 7.035,3.828 6.719,0 8.41,-3.785 8.41,-9.48 V 8.871922 h -6.32 v 12.999996 c 0,3.78101 -1.113,5.652 -4.051,5.652 -3.425,0 -4.894,-1.914 -4.894,-6.58999 V 8.871922 h -6.321 v 23.010996"
       style="fill:#100f0d;fill-opacity:1;fill-rule:nonzero;stroke:none;stroke-width:0.09999999"
       id="path44"
       inkscape:connector-curvature="0" /><path
       d="m 315.18519,31.882918 h 4.629 v -4.22599 h -4.629 v -11.39501 c 0,-2.137001 0.535,-2.672001 2.672,-2.672001 0.668,0 1.289,0.047 1.957,0.18 V 8.828922 c -1.066,-0.176 -2.445,-0.223 -3.691,-0.223 -3.875,0 -7.258,0.8899997 -7.258,5.475995 v 13.575011 h -3.824 v 4.22599 h 3.824 v 6.903 h 6.32 v -6.903"
       style="fill:#100f0d;fill-opacity:1;fill-rule:nonzero;stroke:none;stroke-width:0.09999999"
       id="path46"
       inkscape:connector-curvature="0" /><path
       d="m 322.13019,8.871922 h 6.31992 v 31.781306 h -6.31992 z"
       style="fill:#100f0d;fill-opacity:1;fill-rule:nonzero;stroke:none;stroke-width:0.09999999"
       id="path48"
       inkscape:connector-curvature="0" /><path
       d="m 343.89219,5.980922 c -1.379,-3.695 -3.558,-5.207 -7.922,-5.207 -1.289,0 -2.582,0.09 -3.871,0.222 v 5.208 c 1.199,-0.09 2.446,-0.266 3.696,-0.223 2.179,0.223 2.89,2.492 2.179,4.316 l -8.101,21.585996 h 6.765 l 5.207,-15.75399 h 0.09 l 5.031,15.75399 h 6.543 l -9.617,-25.901996"
       style="fill:#100f0d;fill-opacity:1;fill-rule:nonzero;stroke:none;stroke-width:0.09999999"
       id="path50"
       inkscape:connector-curvature="0" /><path
       d="m 377.40819,13.011917 c 4.316,0 5.609,3.695011 5.609,7.344011 0,3.695 -1.293,7.38999 -5.609,7.38999 -4.274,0 -5.563,-3.69499 -5.563,-7.38999 0,-3.649 1.289,-7.344011 5.563,-7.344011 z m 0,19.496011 c 7.254,0 11.929,-4.808 11.929,-12.152 0,-7.297011 -4.675,-12.106006 -11.929,-12.106006 -7.211,0 -11.883,4.808995 -11.883,12.106006 0,7.344 4.672,12.152 11.883,12.152"
       style="fill:#100f0d;fill-opacity:1;fill-rule:nonzero;stroke:none;stroke-width:0.09999999"
       id="path52"
       inkscape:connector-curvature="0" /><path
       d="m 391.65019,31.882918 h 6.008 v -4.269 h 0.09 c 1.156,2.89001 4.273,4.89401 7.343,4.89401 0.446,0 0.981,-0.09 1.379,-0.222 v -5.87501 c -0.578,0.132 -1.511,0.222 -2.269,0.222 -4.629,0 -6.231,-3.33999 -6.231,-7.38999 V 8.871922 h -6.32 v 23.010996"
       style="fill:#100f0d;fill-opacity:1;fill-rule:nonzero;stroke:none;stroke-width:0.09999999"
       id="path54"
       inkscape:connector-curvature="0" /><path
       d="m 424.18519,20.667928 c 0,3.73899 -1.293,7.07799 -5.387,7.07799 -3.558,0 -5.117,-3.117 -5.117,-6.54199 0,-3.293 1.246,-6.899011 5.117,-6.899011 3.606,0 5.387,3.070001 5.387,6.363011 z m 6.008,-10.328006 c 0,-3.781 -1.336,-10.191 -11.93,-10.191 -4.539,0 -9.836,2.137 -10.148,7.39 h 6.277 c 0.578,-2.359 2.492,-3.164 4.719,-3.164 3.516,0 5.117,2.407 5.074,5.7 v 3.026995 h -0.09 c -1.379,-2.401995 -4.14,-3.5629953 -6.898,-3.5629953 -6.899,0 -9.836,5.2539953 -9.836,11.5750063 0,5.965 3.426,11.394 9.879,11.394 3.027,0 5.344,-1.023 6.855,-3.695 h 0.09 v 3.06999 h 6.008 V 10.339922"
       style="fill:#100f0d;fill-opacity:1;fill-rule:nonzero;stroke:none;stroke-width:0.09999999"
       id="path56"
       inkscape:connector-curvature="0" /><path
       d="m 447.81819,20.132928 c -1.07,-0.933 -3.297,-0.97601 -5.254,-1.33601 -1.957,-0.39799 -3.738,-1.06599 -3.738,-3.383 0,-2.355001 1.824,-2.933001 3.871,-2.933001 4.941,0 5.121,3.914011 5.121,5.293001 z m -14.602,4.67599 c 0.36,5.91801 5.653,7.69901 10.817,7.69901 4.586,0 10.105,-1.023 10.105,-6.543 V 13.992917 c 0,-2.094 0.223,-4.1839953 0.801,-5.120995 h -6.41 c -0.223,0.7139997 -0.399,1.468 -0.445,2.225995 -2.004,-2.0899953 -4.942,-2.847995 -7.747,-2.847995 -4.359,0 -7.832,2.18 -7.832,6.898986 0,5.20702 3.918,6.45301 7.832,6.98802 3.876,0.57799 7.481,0.445 7.481,3.027 0,2.715 -1.871,3.118 -4.098,3.118 -2.402,0 -3.961,-0.981 -4.183,-3.47301 h -6.321"
       style="fill:#100f0d;fill-opacity:1;fill-rule:nonzero;stroke:none;stroke-width:0.09999999"
       id="path58"
       inkscape:connector-curvature="0" /><path
       d="m 458.14219,31.882918 h 6.008 v -3.20299 h 0.133 c 1.601,2.58199 4.363,3.828 7.035,3.828 6.719,0 8.41,-3.785 8.41,-9.48 V 8.871922 h -6.32 v 12.999996 c 0,3.78101 -1.113,5.652 -4.051,5.652 -3.426,0 -4.894,-1.914 -4.894,-6.58999 V 8.871922 h -6.321 v 23.010996"
       style="fill:#100f0d;fill-opacity:1;fill-rule:nonzero;stroke:none;stroke-width:0.09999999"
       id="path60"
       inkscape:connector-curvature="0" /><path
       d="m 482.93119,31.882918 h 6.32109 V 8.872022 h -6.32109 z m 6.321,3.56301 h -6.321 v 5.207 h 6.321 v -5.207"
       style="fill:#100f0d;fill-opacity:1;fill-rule:nonzero;stroke:none;stroke-width:0.09999999"
       id="path62"
       inkscape:connector-curvature="0" /><path
       d="m 491.92019,13.636917 11.976,13.485001 h -11.086 v 4.761 h 19.406 v -4.761 l -11.972,-13.485001 h 12.82 V 8.871922 h -21.144 v 4.764995"
       style="fill:#100f0d;fill-opacity:1;fill-rule:nonzero;stroke:none;stroke-width:0.09999999"
       id="path64"
       inkscape:connector-curvature="0" /><path
       d="m 531.04519,22.847928 c -0.579,3.207 -1.958,4.89799 -5.032,4.89799 -4.004,0 -5.16,-3.117 -5.25,-4.89799 z m -10.282,-4.004 c 0.176,-4.008011 2.137,-5.832011 5.653,-5.832011 2.535,0 4.586,1.559 4.984,2.984011 h 5.563 c -1.778,-5.429006 -5.563,-7.746006 -10.77,-7.746006 -7.254,0 -11.75,4.984995 -11.75,12.106006 0,6.89799 4.762,12.152 11.75,12.152 7.832,0 11.617,-6.58601 11.172,-13.664 h -16.602"
       style="fill:#100f0d;fill-opacity:1;fill-rule:nonzero;stroke:none;stroke-width:0.09999999"
       id="path66"
       inkscape:connector-curvature="0" /><path
       d="m 551.11919,27.745918 c -4.141,0 -5.567,-3.56199 -5.567,-7.34299 0,-3.606 1.649,-7.391011 5.567,-7.391011 4.183,0 5.429,3.652001 5.429,7.434011 0,3.738 -1.335,7.29999 -5.429,7.29999 z m 5.519,-15.933001 h -0.09 c -1.468,-2.4919953 -4.05,-3.562995 -6.988,-3.562995 -6.945,0 -10.328,5.964995 -10.328,12.328996 0,6.18701 3.43,11.92901 10.195,11.92901 2.715,0 5.383,-1.15601 6.852,-3.426 h -0.043 0.09 v 11.571 h 6.32 V 8.871922 h -6.008 v 2.940995"
       style="fill:#100f0d;fill-opacity:1;fill-rule:nonzero;stroke:none;stroke-width:0.09999999"
       id="path68"
       inkscape:connector-curvature="0" /><path
       d="m 585.69719,34.777918 h -9.524 v 5.87501 h 26.04 v -5.87501 h -9.528 V 8.871922 h -6.988 v 25.905996"
       style="fill:#100f0d;fill-opacity:1;fill-rule:nonzero;stroke:none;stroke-width:0.09999999"
       id="path70"
       inkscape:connector-curvature="0" /><path
       d="m 604.97019,40.652928 h 23.766 v -5.87501 h -16.777 v -6.80899 h 15.398 v -5.43 h -15.398 v -7.789021 h 17.132 V 8.871922 h -24.121 v 31.781006"
       style="fill:#100f0d;fill-opacity:1;fill-rule:nonzero;stroke:none;stroke-width:0.09999999"
       id="path72"
       inkscape:connector-curvature="0" /><path
       d="m 639.01719,14.749907 h 6.231 c 4.05,0 7.925,2.493011 7.925,9.524021 0,6.41 -2.226,10.50399 -9.171,10.50399 h -4.985 z m -6.988,25.903021 h 13.711 c 8.234,0 14.418,-5.16401 14.418,-15.711 0,-9.21501 -4.715,-16.070006 -14.418,-16.070006 h -13.711 v 31.781006"
       style="fill:#100f0d;fill-opacity:1;fill-rule:nonzero;stroke:none;stroke-width:0.09999999"
       id="path74"
       inkscape:connector-curvature="0" /><path
       d="m 690.42319,22.847928 c -0.578,3.207 -1.957,4.89799 -5.031,4.89799 -4.004,0 -5.16,-3.117 -5.25,-4.89799 z m -10.281,-4.004 c 0.176,-4.008011 2.137,-5.832011 5.653,-5.832011 2.535,0 4.585,1.559 4.984,2.984011 h 5.562 c -1.777,-5.429006 -5.562,-7.746006 -10.769,-7.746006 -7.254,0 -11.75,4.984995 -11.75,12.106006 0,6.89799 4.762,12.152 11.75,12.152 7.832,0 11.617,-6.58601 11.172,-13.664 h -16.602"
       style="fill:#100f0d;fill-opacity:1;fill-rule:nonzero;stroke:none;stroke-width:0.09999999"
       id="path76"
       inkscape:connector-curvature="0" /><path
       d="m 711.43119,8.871922 h -7.035 l -7.875,23.010996 h 6.629 l 4.852,-15.711 h 0.089 l 4.852,15.711 h 6.277 l -7.789,-23.010996"
       style="fill:#100f0d;fill-opacity:1;fill-rule:nonzero;stroke:none;stroke-width:0.09999999"
       id="path78"
       inkscape:connector-curvature="0" /><path
       d="m 735.55219,22.847928 c -0.578,3.207 -1.957,4.89799 -5.027,4.89799 -4.008,0 -5.164,-3.117 -5.254,-4.89799 z m -10.281,-4.004 c 0.18,-4.008011 2.137,-5.832011 5.652,-5.832011 2.54,0 4.586,1.559 4.985,2.984011 h 5.566 c -1.781,-5.429006 -5.566,-7.746006 -10.773,-7.746006 -7.254,0 -11.75,4.984995 -11.75,12.106006 0,6.89799 4.762,12.152 11.75,12.152 7.836,0 11.617,-6.58601 11.172,-13.664 h -16.602"
       style="fill:#100f0d;fill-opacity:1;fill-rule:nonzero;stroke:none;stroke-width:0.09999999"
       id="path80"
       inkscape:connector-curvature="0" /><path
       d="m 744.72019,31.882918 h 6.00797 v -3.20299 h 0.13702 c 1.60103,2.58199 4.359,3.828 7.03103,3.828 6.723,0 8.41395,-3.785 8.41395,-9.48 V 8.871922 h -6.31995 v 12.999996 c 0,3.78101 -1.113,5.652 -4.05105,5.652 -3.42998,0 -4.89795,-1.914 -4.89795,-6.58999 V 8.871922 h -6.32102 v 23.010996"
       style="fill:#100f0d;fill-opacity:1;fill-rule:nonzero;stroke:none;stroke-width:0.09999999"
       id="path82"
       inkscape:connector-curvature="0" /><path
       d="m 778.23216,31.882918 h 4.63305 v -4.22599 h -4.63305 v -11.39501 c 0,-2.137001 0.53505,-2.672001 2.67202,-2.672001 0.66803,0 1.293,0.047 1.96103,0.18 V 8.828922 c -1.07003,-0.176 -2.44905,-0.223 -3.69503,-0.223 -3.87202,0 -7.254,0.8899997 -7.254,5.475995 v 13.575011 h -3.82897 v 4.22599 h 3.82897 v 6.903 h 6.31598 v -6.903"
       style="fill:#100f0d;fill-opacity:1;fill-rule:nonzero;stroke:none;stroke-width:0.09999999"
       id="path84"
       inkscape:connector-curvature="0" /><path
       d="M 29.947087,145.79292 H 0.29118696 v 27.125 H 92.170187 v -27.125 h -29.641 V 67.097928 h -32.5821 v 78.694992"
       style="fill:#ee2922;fill-opacity:1;fill-rule:nonzero;stroke:none;stroke-width:0.09999999"
       id="path86"
       inkscape:connector-curvature="0" /><path
       d="m 97.236187,172.91792 h 89.191003 v -27.125 h -56.59 v -13.183 h 56.59 v -25.203 h -56.59 V 94.218927 h 56.606 V 67.097928 H 97.236187 V 172.91792"
       style="fill:#ee2922;fill-opacity:1;fill-rule:nonzero;stroke:none;stroke-width:0.09999999"
       id="path88"
       inkscape:connector-curvature="0" /><path
       d="m 224.51319,94.218927 h 12.75 c 20.309,0 23.278,16.456993 23.278,26.398993 0,6.656 -2.086,25.175 -25.653,25.175 h -10.375 z m -32.597,78.698993 h 53.5 c 35.265,0 47.726,-26.086 47.726,-52.754 0,-32.463992 -17.191,-53.065992 -54.094,-53.065992 h -47.132 V 172.91792"
       style="fill:#ee2922;fill-opacity:1;fill-rule:nonzero;stroke:none;stroke-width:0.09999999"
       id="path90"
       inkscape:connector-curvature="0" /><path
       d="m 339.99019,107.87492 -9.945,16.493 -9.7,-16.493 h -23.886 l 22.675,33.348 -21.836,31.899 h 23.899 l 8.848,-15.77 9.101,15.77 h 23.891 l -21.832,-31.899 22.675,-33.348 h -23.89"
       style="fill:#ee2922;fill-opacity:1;fill-rule:nonzero;stroke:none;stroke-width:0.09999999"
       id="path92"
       inkscape:connector-curvature="0" /><path
       style="font-variant:normal;font-weight:normal;font-size:149px;font-family:Helvetica;-inkscape-font-specification:Helvetica;writing-mode:lr-tb;fill:#000000;fill-opacity:1;fill-rule:nonzero;stroke:none;stroke-width:0.99999994"
       d="m 396.06213,173.0614 h 77.91943 V 159.9657 H 410.17639 V 127.51745 H 469.1798 V 115.14929 H 410.17639 V 78.917848 h 64.89648 v -12.73193 h -79.01074 z m 39.50536,0 z"
       id="path100"
       inkscape:connector-curvature="0" /><path
       style="font-variant:normal;font-weight:normal;font-size:149px;font-family:Helvetica;-inkscape-font-specification:Helvetica;writing-mode:lr-tb;fill:#000000;fill-opacity:1;fill-rule:nonzero;stroke:none;stroke-width:0.99999994"
       d="M 505.41242,144.10535 V 92.377317 q 0,-5.965809 1.89159,-9.749009 3.49219,-6.98438 13.02295,-6.98438 13.67774,0 18.625,12.22265 2.6919,6.547859 2.6919,17.970212 v 38.26856 h 13.0957 V 66.185918 H 542.3714 l 0.1455,11.49512 q -2.54638,-4.43799 -6.32959,-7.49365 -7.49365,-6.11133 -18.18847,-6.11133 -16.66065,0 -22.69922,11.13135 -3.27393,5.96581 -3.27393,15.933099 v 52.964843 z m 17.97021,1.8916 z"
       id="path102"
       inkscape:connector-curvature="0" /><path
       style="font-variant:normal;font-weight:normal;font-size:149px;font-family:Helvetica;-inkscape-font-specification:Helvetica;writing-mode:lr-tb;fill:#000000;fill-opacity:1;fill-rule:nonzero;stroke:none;stroke-width:0.99999994"
       d="m 575.52448,144.10535 h 12.44092 v -13.45948 q 1.52783,3.92871 7.49365,9.53076 5.96583,5.67481 13.7505,5.67481 0.36376,0 1.23681,-0.0728 0.87304,-0.0728 2.98291,-0.29102 v -13.82324 q -1.16407,0.21826 -2.18262,0.29102 -0.94579,0.0727 -2.10987,0.0727 -9.89453,0 -15.20556,-6.40235 -5.31104,-6.32959 -5.31104,-14.62353 V 66.185818 h -13.0957 z"
       id="path104"
       inkscape:connector-curvature="0" /><path
       style="font-variant:normal;font-weight:normal;font-size:149px;font-family:Helvetica;-inkscape-font-specification:Helvetica;writing-mode:lr-tb;fill:#000000;fill-opacity:1;fill-rule:nonzero;stroke:none;stroke-width:0.99999994"
       d="m 655.69811,74.625368 q 13.02295,0 17.82471,9.82178 4.87451,9.894539 4.87451,21.971672 0,10.91309 -3.49219,17.75195 -5.5293,10.76758 -19.06152,10.76758 -12.0044,0 -17.46094,-9.16699 -5.45654,-9.16699 -5.45654,-22.11719 0,-12.440913 5.45654,-20.734852 5.45654,-8.29395 17.31543,-8.29395 z m 0.50928,71.735352 q 15.06006,0 25.46386,-10.04004 10.40381,-10.04004 10.40381,-29.53809 0,-18.843252 -9.16699,-31.138662 -9.16699,-12.29541 -28.44678,-12.29541 -16.07861,0 -25.53662,10.84033 -9.45801,10.91308 -9.45801,29.247062 0,19.64356 9.96729,31.28418 9.96728,11.64063 26.77344,11.64063 z m -0.43653,-0.36377 z"
       id="path106"
       inkscape:connector-curvature="0" /><path
       style="font-variant:normal;font-weight:normal;font-size:149px;font-family:Helvetica;-inkscape-font-specification:Helvetica;writing-mode:lr-tb;fill:#000000;fill-opacity:1;fill-rule:nonzero;stroke:none;stroke-width:0.99999994"
       d="m 740.50646,74.989138 q 9.16699,0 15.2056,7.63917 6.1113,7.711909 6.1113,22.990222 0,9.3125 -2.6919,16.00586 -5.0928,12.87744 -18.625,12.87744 -13.60498,0 -18.625,-13.60498 -2.6919,-7.27539 -2.6919,-18.47949 0,-9.021483 2.6919,-15.351072 5.09277,-12.07715 18.625,-12.07715 z m -33.90331,68.752442 h 12.73192 v -10.33106 q 3.92871,5.31104 8.58496,8.22119 6.62061,4.36524 15.56934,4.36524 13.24119,0 22.48096,-10.18555 9.2397,-10.11279 9.2397,-28.95605 0,-25.463862 -13.31392,-36.376952 -8.43945,-6.91162 -19.64356,-6.91162 -8.80322,0 -14.76904,3.85596 -3.49219,2.18262 -7.78467,7.49365 v -39.79638 h -13.09569 z"
       id="path108"
       inkscape:connector-curvature="0" /><path
       style="font-variant:normal;font-weight:normal;font-size:149px;font-family:Helvetica;-inkscape-font-specification:Helvetica;writing-mode:lr-tb;fill:#000000;fill-opacity:1;fill-rule:nonzero;stroke:none;stroke-width:0.99999994"
       d="m 822.91394,145.85144 q 8.29395,0 16.07865,-3.92871 7.78462,-3.85596 11.85885,-10.04004 3.92872,-5.89307 5.2383,-13.75049 1.16407,-5.38379 1.16407,-17.16992 h -57.11183 q 0.36376,-11.858882 5.60206,-19.061512 5.2383,-7.12989 16.22415,-7.12989 10.25827,0 16.36957,6.76612 3.49223,3.92871 4.9473,9.094229 h 12.87743 q -0.50925,-4.292479 -3.4194,-9.603509 -2.8374,-5.23828 -6.40238,-8.58496 -5.9658,-5.82032 -14.769,-7.85742 -4.72905,-1.16407 -10.69485,-1.16407 -14.55082,0 -24.6636,10.54932 -10.11278,10.62207 -10.11278,29.683582 0,18.77051 10.18553,30.48389 10.1856,11.71338 26.62793,11.71338 z m 20.88037,-34.48535 q -0.80025,8.5122 -3.7104,13.60498 -5.3838,9.45801 -17.97022,9.45801 -9.02153,0 -15.13283,-6.54786 -6.1113,-6.47509 -6.47512,-16.51513 z m -22.1172,34.63086 z"
       id="path110"
       inkscape:connector-curvature="0" /><path
       style="font-variant:normal;font-weight:normal;font-size:149px;font-family:Helvetica;-inkscape-font-specification:Helvetica;writing-mode:lr-tb;fill:#000000;fill-opacity:1;fill-rule:nonzero;stroke:none;stroke-width:0.99999994"
       d="m 883.34976,86.920778 q 0,-5.6748 4.14698,-8.94873 4.14697,-3.27392 9.82177,-3.27392 6.91163,0 13.38668,3.20117 10.9131,5.31104 10.9131,17.388179 v 10.549313 q -2.40083,-1.52783 -6.18405,-2.54639 -3.78323,-1.01855 -7.42088,-1.45507 l -7.9302,-1.01856 q -7.12987,-0.945797 -10.69485,-2.982903 -6.03855,-3.41943 -6.03855,-10.913089 z m 31.72073,26.482422 q 4.51072,0.58203 6.03855,3.7832 0.87307,1.74609 0.87307,5.02002 0,6.69336 -4.8018,9.67627 -4.72897,3.05566 -13.605,3.05566 -10.25827,0 -14.55075,-5.52929 -2.4009,-3.05567 -3.1284,-9.09424 h -12.22267 q 0.36375,14.40527 9.31252,20.00732 9.02145,5.67481 20.88038,5.67481 13.75042,0 22.33545,-5.23828 8.5122,-5.23829 8.5122,-16.29688 V 79.572638 q 0,-2.03711 0.80025,-3.27393 0.87307,-1.23681 3.56497,-1.23681 0.873,0 1.96433,0.0728 1.09132,0.14551 2.32815,0.36377 v -9.67627 q -3.05565,-0.87305 -4.6563,-1.0913 -1.60058,-0.21827 -4.36523,-0.21827 -6.76605,0 -9.82177,4.80176 -1.60058,2.54639 -2.25533,7.20264 -4.00147,-5.23829 -11.49517,-9.09424 -7.49363,-3.85596 -16.51508,-3.85596 -10.84035,0 -17.75197,6.54785 -6.83888,6.6206 -6.83888,16.51514 0,10.840329 6.76613,16.806142 6.76612,5.96582 17.75197,7.34815 z m -10.84035,32.59375 z"
       id="path112"
       inkscape:connector-curvature="0" /><path
       style="font-variant:normal;font-weight:normal;font-size:149px;font-family:Helvetica;-inkscape-font-specification:Helvetica;writing-mode:lr-tb;fill:#000000;fill-opacity:1;fill-rule:nonzero;stroke:none;stroke-width:0.99999994"
       d="m 956.15369,144.10535 h 12.44092 v -11.0586 q 5.5293,6.83887 11.71335,9.82178 6.18413,2.98291 13.7505,2.98291 16.58794,0 22.40824,-11.56787 3.2011,-6.32959 3.2011,-18.11572 V 66.185918 h -13.3139 V 115.2948 q 0,7.12988 -2.1099,11.49512 -3.4921,7.27539 -12.65919,7.27539 -4.65622,0 -7.63912,-0.9458 -5.3838,-1.60059 -9.45803,-6.40235 -3.2739,-3.85596 -4.29247,-8.00293 -0.94583,-4.07422 -0.94583,-11.71338 V 66.185918 h -13.09567 z m 30.7749,1.8916 z"
       id="path114"
       inkscape:connector-curvature="0" /><path
       style="font-variant:normal;font-weight:normal;font-size:149px;font-family:Helvetica;-inkscape-font-specification:Helvetica;writing-mode:lr-tb;fill:#000000;fill-opacity:1;fill-rule:nonzero;stroke:none;stroke-width:0.99999994"
       d="m 1085.7785,175.97155 q 20.2983,0 31.5024,-10.69482 11.2041,-10.69482 12.441,-24.2998 h -14.1143 q -2.4009,10.33105 -9.6035,16.36963 -7.1299,6.03857 -20.0801,6.03857 -15.7876,0 -25.5366,-11.13135 -9.6762,-11.05859 -9.6762,-33.97607 0,-18.770507 8.7304,-30.483882 8.8032,-11.64063 26.1914,-11.64063 16.0059,0 24.3726,12.29541 4.4379,6.475109 6.6206,17.024412 h 14.1142 q -1.8915,-16.878902 -12.5136,-28.301262 -12.732,-13.75049 -34.3399,-13.75049 -18.625,0 -31.2842,11.27686 -16.6606,14.91455 -16.6606,46.053212 0,23.64502 12.5137,38.77783 13.5322,16.44238 37.3227,16.44238 z m -2.9101,0 z"
       id="path116"
       inkscape:connector-curvature="0" /><path
       style="font-variant:normal;font-weight:normal;font-size:149px;font-family:Helvetica;-inkscape-font-specification:Helvetica;writing-mode:lr-tb;fill:#000000;fill-opacity:1;fill-rule:nonzero;stroke:none;stroke-width:0.99999994"
       d="m 1146.9395,173.0614 h 13.0957 V 66.185918 h -13.0957 z"
       id="path118"
       inkscape:connector-curvature="0" /><path
       style="font-variant:normal;font-weight:normal;font-size:149px;font-family:Helvetica;-inkscape-font-specification:Helvetica;writing-mode:lr-tb;fill:#000000;fill-opacity:1;fill-rule:nonzero;stroke:none;stroke-width:0.99999994"
       d="m 1179.6537,143.74158 h 13.3139 V 66.185918 h -13.3139 z m 0,29.31982 h 13.3139 v -14.8418 h -13.3139 z"
       id="path120"
       inkscape:connector-curvature="0" /><path
       style="font-variant:normal;font-weight:normal;font-size:149px;font-family:Helvetica;-inkscape-font-specification:Helvetica;writing-mode:lr-tb;fill:#000000;fill-opacity:1;fill-rule:nonzero;stroke:none;stroke-width:0.99999994"
       d="m 1212.7317,144.10535 h 12.9502 v -11.0586 q 4.6562,5.74756 8.4394,8.3667 6.4752,4.43799 14.6964,4.43799 9.3124,0 14.9872,-4.5835 3.2012,-2.61914 5.8203,-7.71191 4.3653,6.25683 10.2584,9.23974 5.893,3.05567 13.2411,3.05567 15.7149,0 21.3897,-11.34961 3.0557,-6.11133 3.0557,-16.44238 V 66.185918 h -13.605 v 54.128902 q 0,7.78467 -3.9287,10.69482 -3.8559,2.91016 -9.458,2.91016 -7.7119,0 -13.314,-5.16553 -5.5293,-5.16553 -5.5293,-17.24267 V 66.185918 h -13.314 v 50.854972 q 0,7.93018 -1.8916,11.56787 -2.9829,5.45655 -11.1313,5.45655 -7.4209,0 -13.5322,-5.74756 -6.0386,-5.74756 -6.0386,-20.80762 V 66.185918 h -13.0957 z"
       id="path122"
       inkscape:connector-curvature="0" /><path
       style="font-variant:normal;font-weight:normal;font-size:149px;font-family:Helvetica;-inkscape-font-specification:Helvetica;writing-mode:lr-tb;fill:#000000;fill-opacity:1;fill-rule:nonzero;stroke:none;stroke-width:0.99999994"
       d="m 1346.8887,86.920778 q 0,-5.6748 4.147,-8.94873 4.147,-3.27392 9.8218,-3.27392 6.9116,0 13.3867,3.20117 10.9131,5.31104 10.9131,17.388179 v 10.549313 q -2.4009,-1.52783 -6.1841,-2.54639 -3.7832,-1.01855 -7.4209,-1.45507 l -7.9302,-1.01856 q -7.1299,-0.945797 -10.6948,-2.982903 -6.0386,-3.41943 -6.0386,-10.913089 z m 31.7207,26.482422 q 4.5108,0.58203 6.0386,3.7832 0.8731,1.74609 0.8731,5.02002 0,6.69336 -4.8018,9.67627 -4.729,3.05566 -13.605,3.05566 -10.2582,0 -14.5508,-5.52929 -2.4008,-3.05567 -3.1284,-9.09424 h -12.2227 q 0.3639,14.40527 9.3126,20.00732 9.0215,5.67481 20.8803,5.67481 13.7505,0 22.3355,-5.23828 8.5122,-5.23829 8.5122,-16.29688 V 79.572638 q 0,-2.03711 0.8003,-3.27393 0.873,-1.23681 3.5649,-1.23681 0.8731,0 1.9644,0.0728 1.0913,0.14551 2.3281,0.36377 v -9.67627 q -3.0557,-0.87305 -4.6562,-1.0913 -1.6006,-0.21827 -4.3653,-0.21827 -6.7661,0 -9.8218,4.80176 -1.6005,2.54639 -2.2553,7.20264 -4.0015,-5.23829 -11.4951,-9.09424 -7.4937,-3.85596 -16.5152,-3.85596 -10.8403,0 -17.7519,6.54785 -6.8389,6.6206 -6.8389,16.51514 0,10.840329 6.7661,16.806142 6.7661,5.96582 17.752,7.34815 z m -10.8403,32.59375 z"
       id="path124"
       inkscape:connector-curvature="0" /><path
       style="font-variant:normal;font-weight:normal;font-size:149px;font-family:Helvetica;-inkscape-font-specification:Helvetica;writing-mode:lr-tb;fill:#000000;fill-opacity:1;fill-rule:nonzero;stroke:none;stroke-width:0.99999994"
       d="m 1422.3119,165.85876 h 13.2412 v -21.75341 h 12.4409 v -10.69483 h -12.4409 V 82.555548 q 0,-4.07422 2.7646,-5.45654 1.5279,-0.8003 5.0928,-0.8003 0.9458,0 2.0371,0 1.0913,0.0727 2.5464,0.21827 v -10.33106 q -2.2554,-0.65479 -4.729,-0.9458 -2.4009,-0.29102 -5.2383,-0.29102 -9.167,0 -12.4409,4.65626 -3.2739,4.729 -3.2739,12.22265 v 51.582512 h -10.5493 v 10.69483 h 10.5493 z"
       id="path126"
       inkscape:connector-curvature="0" /><path
       style="font-variant:normal;font-weight:normal;font-size:149px;font-family:Helvetica;-inkscape-font-specification:Helvetica;writing-mode:lr-tb;fill:#000000;fill-opacity:1;fill-rule:nonzero;stroke:none;stroke-width:0.99999994"
       d="m 1493.563,145.85144 q 8.2939,0 16.0786,-3.92871 7.7847,-3.85596 11.8589,-10.04004 3.9287,-5.89307 5.2383,-13.75049 1.164,-5.38379 1.164,-17.16992 h -57.1118 q 0.3638,-11.858882 5.6021,-19.061512 5.2382,-7.12989 16.2241,-7.12989 10.2583,0 16.3696,6.76612 3.4922,3.92871 4.9473,9.094229 h 12.8774 q -0.5093,-4.292479 -3.4194,-9.603509 -2.8374,-5.23828 -6.4024,-8.58496 -5.9658,-5.82032 -14.769,-7.85742 -4.729,-1.16407 -10.6948,-1.16407 -14.5508,0 -24.6636,10.54932 -10.1128,10.62207 -10.1128,29.683582 0,18.77051 10.1856,30.48389 10.1855,11.71338 26.6279,11.71338 z m 20.8804,-34.48535 q -0.8003,8.5122 -3.7105,13.60498 -5.3838,9.45801 -17.9702,9.45801 -9.0215,0 -15.1328,-6.54786 -6.1113,-6.47509 -6.4751,-16.51513 z m -22.1172,34.63086 z"
       id="path128"
       inkscape:connector-curvature="0" /><path
       style="font-variant:normal;font-weight:normal;font-size:149px;font-family:Helvetica;-inkscape-font-specification:Helvetica;writing-mode:lr-tb;fill:#000000;fill-opacity:1;fill-rule:nonzero;stroke:none;stroke-width:0.99999994"
       d="m 1547.0872,173.0614 h 48.0903 q 14.2598,0 22.9902,-8.07568 8.7305,-8.00293 8.7305,-22.55371 0,-12.51368 -7.7847,-21.82618 -7.7846,-9.23974 -23.936,-9.23974 h -33.6123 V 66.185918 h -14.478 z m 65.1875,-30.70215 q 0,11.78613 -8.7305,16.00586 -4.8018,2.25537 -13.1685,2.25537 h -28.8105 v -37.03174 h 28.8105 q 9.7491,0 15.7876,4.14698 6.1114,4.14697 6.1114,14.62353 z"
       id="path130"
       inkscape:connector-curvature="0" /><path
       style="font-variant:normal;font-weight:normal;font-size:149px;font-family:Helvetica;-inkscape-font-specification:Helvetica;writing-mode:lr-tb;fill:#000000;fill-opacity:1;fill-rule:nonzero;stroke:none;stroke-width:0.99999994"
       d="m 1653.3817,86.920778 q 0,-5.6748 4.147,-8.94873 4.147,-3.27392 9.8218,-3.27392 6.9116,0 13.3867,3.20117 10.9131,5.31104 10.9131,17.388179 v 10.549313 q -2.4009,-1.52783 -6.1841,-2.54639 -3.7832,-1.01855 -7.4209,-1.45507 l -7.9302,-1.01856 q -7.1299,-0.945797 -10.6948,-2.982903 -6.0386,-3.41943 -6.0386,-10.913089 z m 31.7207,26.482422 q 4.5108,0.58203 6.0386,3.7832 0.873,1.74609 0.873,5.02002 0,6.69336 -4.8017,9.67627 -4.729,3.05566 -13.605,3.05566 -10.2583,0 -14.5508,-5.52929 -2.4009,-3.05567 -3.1284,-9.09424 h -12.2227 q 0.3638,14.40527 9.3125,20.00732 9.0215,5.67481 20.8804,5.67481 13.7505,0 22.3355,-5.23828 8.5122,-5.23829 8.5122,-16.29688 V 79.572638 q 0,-2.03711 0.8003,-3.27393 0.873,-1.23681 3.5649,-1.23681 0.8731,0 1.9644,0.0728 1.0913,0.14551 2.3281,0.36377 v -9.67627 q -3.0557,-0.87305 -4.6563,-1.0913 -1.6005,-0.21827 -4.3652,-0.21827 -6.7661,0 -9.8218,4.80176 -1.6006,2.54639 -2.2553,7.20264 -4.0015,-5.23829 -11.4952,-9.09424 -7.4936,-3.85596 -16.5151,-3.85596 -10.8403,0 -17.752,6.54785 -6.8388,6.6206 -6.8388,16.51514 0,10.840329 6.7661,16.806142 6.7661,5.96582 17.7519,7.34815 z m -10.8403,32.59375 z"
       id="path132"
       inkscape:connector-curvature="0" /><path
       style="font-variant:normal;font-weight:normal;font-size:149px;font-family:Helvetica;-inkscape-font-specification:Helvetica;writing-mode:lr-tb;fill:#000000;fill-opacity:1;fill-rule:nonzero;stroke:none;stroke-width:0.99999994"
       d="m 1756.233,146.36072 q 13.1685,0 21.3897,-6.40235 8.2939,-6.40234 9.9673,-22.04443 h -12.732 q -1.164,7.20264 -5.311,11.93164 -4.147,4.80176 -13.314,4.80176 -12.5136,0 -17.8974,-12.22266 -3.4922,-7.93017 -3.4922,-19.5708 0,-11.713373 4.9472,-19.716302 4.9473,-8.00293 15.5694,-8.00293 8.1484,0 12.8774,4.94726 4.8018,5.02002 6.6206,13.677739 h 12.732 q -2.1827,-15.496579 -10.9131,-22.699219 -8.7305,-7.12988 -22.3355,-7.12988 -15.2783,0 -24.3725,11.13135 -9.0943,11.2041 -9.0943,27.937492 0,20.5166 9.9673,31.93896 9.9673,11.42237 25.3911,11.42237 z m -2.0371,-0.36377 z"
       id="path134"
       inkscape:connector-curvature="0" /><path
       style="font-variant:normal;font-weight:normal;font-size:149px;font-family:Helvetica;-inkscape-font-specification:Helvetica;writing-mode:lr-tb;fill:#000000;fill-opacity:1;fill-rule:nonzero;stroke:none;stroke-width:0.99999994"
       d="m 1803.3048,165.85876 h 13.2412 v -21.75341 h 12.4409 V 133.41052 H 1816.546 V 82.555548 q 0,-4.07422 2.7647,-5.45654 1.5278,-0.8003 5.0927,-0.8003 0.9458,0 2.0372,0 1.0913,0.0727 2.5463,0.21827 v -10.33106 q -2.2553,-0.65479 -4.729,-0.9458 -2.4008,-0.29102 -5.2382,-0.29102 -9.167,0 -12.441,4.65626 -3.2739,4.729 -3.2739,12.22265 v 51.582512 h -10.5493 v 10.69483 h 10.5493 z"
       id="path136"
       inkscape:connector-curvature="0" /><path
       style="font-variant:normal;font-weight:normal;font-size:149px;font-family:Helvetica;-inkscape-font-specification:Helvetica;writing-mode:lr-tb;fill:#000000;fill-opacity:1;fill-rule:nonzero;stroke:none;stroke-width:0.99999994"
       d="m 1847.1277,173.0614 h 14.6235 V 66.185918 h -14.6235 z"
       id="path138"
       inkscape:connector-curvature="0" /><path
       style="font-variant:normal;font-weight:normal;font-size:149px;font-family:Helvetica;-inkscape-font-specification:Helvetica;writing-mode:lr-tb;fill:#000000;fill-opacity:1;fill-rule:nonzero;stroke:none;stroke-width:0.99999994"
       d="m 1891.3143,90.631227 q 0.5821,-6.547849 3.274,-10.040039 4.9472,-6.32958 17.1699,-6.32958 7.2754,0 12.8047,3.12841 5.5293,3.20117 5.5293,9.82178 0,5.020019 -4.438,7.639159 -2.8374,1.60059 -11.2041,3.71045 l -10.4038,2.619133 q -9.9673,2.47363 -14.6963,5.5293 -8.4395,5.31103 -8.4395,14.69629 0,11.05859 7.9302,17.89746 8.0029,6.83886 21.4624,6.83886 17.6064,0 25.3911,-10.33105 4.8745,-6.54785 4.729,-14.11426 h -12.3681 q -0.3638,4.43799 -3.1285,8.07569 -4.5107,5.16552 -15.6421,5.16552 -7.4209,0 -11.2768,-2.8374 -3.7832,-2.8374 -3.7832,-7.49365 0,-5.09278 5.02,-8.14844 2.9102,-1.81885 8.585,-3.20117 l 8.6577,-2.10986 q 14.1142,-3.41944 18.916,-6.62061 7.6392,-5.020017 7.6392,-15.787592 0,-10.40381 -7.9302,-17.97021 -7.8574,-7.56641 -24.0088,-7.56641 -17.3882,0 -24.6636,7.85742 -7.2026,7.93018 -7.7119,19.570799 z m 19.3526,55.365723 z"
       id="path140"
       inkscape:connector-curvature="0" /><path
       style="font-variant:normal;font-weight:normal;font-size:149px;font-family:Helvetica;-inkscape-font-specification:Helvetica;writing-mode:lr-tb;fill:#000000;fill-opacity:1;fill-rule:nonzero;stroke:none;stroke-width:0.99999994"
       d="m 1960.6488,165.85876 h 13.2413 v -21.75341 h 12.4409 v -10.69483 h -12.4409 V 82.555548 q 0,-4.07422 2.7647,-5.45654 1.5278,-0.8003 5.0927,-0.8003 0.9458,0 2.0371,0 1.0914,0.0727 2.5464,0.21827 v -10.33106 q -2.2553,-0.65479 -4.729,-0.9458 -2.4009,-0.29102 -5.2383,-0.29102 -9.167,0 -12.441,4.65626 -3.2739,4.729 -3.2739,12.22265 v 51.582512 h -10.5493 v 10.69483 h 10.5493 z"
       id="path142"
       inkscape:connector-curvature="0" /><path
       style="font-variant:normal;font-weight:normal;font-size:149px;font-family:Helvetica;-inkscape-font-specification:Helvetica;writing-mode:lr-tb;fill:#000000;fill-opacity:1;fill-rule:nonzero;stroke:none;stroke-width:0.99999994"
       d="m 2009.4918,86.920778 q 0,-5.6748 4.147,-8.94873 4.1469,-3.27392 9.8217,-3.27392 6.9117,0 13.3868,3.20117 10.9131,5.31104 10.9131,17.388179 v 10.549313 q -2.4009,-1.52783 -6.1841,-2.54639 -3.7832,-1.01855 -7.4209,-1.45507 l -7.9302,-1.01856 q -7.1299,-0.945797 -10.6948,-2.982903 -6.0386,-3.41943 -6.0386,-10.913089 z m 31.7207,26.482422 q 4.5107,0.58203 6.0386,3.7832 0.873,1.74609 0.873,5.02002 0,6.69336 -4.8017,9.67627 -4.729,3.05566 -13.605,3.05566 -10.2583,0 -14.5508,-5.52929 -2.4009,-3.05567 -3.1284,-9.09424 h -12.2227 q 0.3638,14.40527 9.3125,20.00732 9.0215,5.67481 20.8804,5.67481 13.7505,0 22.3354,-5.23828 8.5123,-5.23829 8.5123,-16.29688 V 79.572638 q 0,-2.03711 0.8002,-3.27393 0.8731,-1.23681 3.565,-1.23681 0.873,0 1.9643,0.0728 1.0914,0.14551 2.3282,0.36377 v -9.67627 q -3.0557,-0.87305 -4.6563,-1.0913 -1.6006,-0.21827 -4.3652,-0.21827 -6.7661,0 -9.8218,4.80176 -1.6006,2.54639 -2.2554,7.20264 -4.0014,-5.23829 -11.4951,-9.09424 -7.4936,-3.85596 -16.5151,-3.85596 -10.8403,0 -17.752,6.54785 -6.8388,6.6206 -6.8388,16.51514 0,10.840329 6.7661,16.806142 6.7661,5.96582 17.7519,7.34815 z m -10.8403,32.59375 z"
       id="path144"
       inkscape:connector-curvature="0" /><path
       style="font-variant:normal;font-weight:normal;font-size:149px;font-family:Helvetica;-inkscape-font-specification:Helvetica;writing-mode:lr-tb;fill:#000000;fill-opacity:1;fill-rule:nonzero;stroke:none;stroke-width:0.99999994"
       d="m 2082.2959,144.10535 h 12.4409 v -11.0586 q 5.5293,6.83887 11.7134,9.82178 6.1841,2.98291 13.7505,2.98291 16.5879,0 22.4082,-11.56787 3.2011,-6.32959 3.2011,-18.11572 V 66.185918 h -13.3139 V 115.2948 q 0,7.12988 -2.1099,11.49512 -3.4922,7.27539 -12.6592,7.27539 -4.6562,0 -7.6391,-0.9458 -5.3838,-1.60059 -9.458,-6.40235 -3.274,-3.85596 -4.2925,-8.00293 -0.9458,-4.07422 -0.9458,-11.71338 V 66.185918 h -13.0957 z m 30.7749,1.8916 z"
       id="path146"
       inkscape:connector-curvature="0" /><path
       style="font-variant:normal;font-weight:normal;font-size:149px;font-family:Helvetica;-inkscape-font-specification:Helvetica;writing-mode:lr-tb;fill:#000000;fill-opacity:1;fill-rule:nonzero;stroke:none;stroke-width:0.99999994"
       d="m 2164.1213,173.42517 h 12.7319 v -38.77783 q 4.2925,5.60205 10.2584,8.5122 5.9658,2.98291 12.9501,2.98291 14.5508,0 23.5723,-10.04003 9.0942,-9.96729 9.0942,-29.46534 0,-18.479482 -8.9487,-30.702132 -8.9487,-12.22266 -24.8091,-12.22266 -8.8759,0 -14.9873,4.29248 -3.6377,2.54638 -7.7846,8.14843 v -9.96728 h -12.0772 z m 34.0488,-98.145012 q 10.6221,0 15.8604,8.43945 5.311,8.439459 5.311,22.262692 0,12.29541 -5.311,20.37109 -5.2383,8.07569 -15.4966,8.07569 -8.9487,0 -15.7148,-6.62061 -6.6934,-6.62061 -6.6934,-21.82617 0,-10.985833 2.7647,-17.824702 5.1655,-12.87744 19.2797,-12.87744 z"
       id="path148"
       inkscape:connector-curvature="0" /><path
       style="font-variant:normal;font-weight:normal;font-size:149px;font-family:Helvetica;-inkscape-font-specification:Helvetica;writing-mode:lr-tb;fill:#000000;fill-opacity:1;fill-rule:nonzero;stroke:none;stroke-width:0.99999994"
       d="M 2261.0796,144.10535 V 92.377317 q 0,-5.965809 1.8916,-9.749009 3.4922,-6.98438 13.0229,-6.98438 13.6778,0 18.625,12.22265 2.6919,6.547859 2.6919,17.970212 v 38.26856 h 13.0957 V 66.185918 h -12.3681 l 0.1455,11.49512 q -2.5464,-4.43799 -6.3296,-7.49365 -7.4937,-6.11133 -18.1885,-6.11133 -16.6607,0 -22.6992,11.13135 -3.274,5.96581 -3.274,15.933099 v 52.964843 z m 17.9702,1.8916 z"
       id="path150"
       inkscape:connector-curvature="0" /><path
       style="font-variant:normal;font-weight:normal;font-size:149px;font-family:Helvetica;-inkscape-font-specification:Helvetica;writing-mode:lr-tb;fill:#000000;fill-opacity:1;fill-rule:nonzero;stroke:none;stroke-width:0.99999994"
       d="m 2331.1916,173.0614 h 13.0957 V 66.185918 h -13.0957 z"
       id="path152"
       inkscape:connector-curvature="0" /></g></svg>