<?xml version="1.0" encoding="UTF-8" standalone="no"?>
<svg
   xmlns:dc="http://purl.org/dc/elements/1.1/"
   xmlns:cc="http://creativecommons.org/ns#"
   xmlns:rdf="http://www.w3.org/1999/02/22-rdf-syntax-ns#"
   xmlns:svg="http://www.w3.org/2000/svg"
   xmlns="http://www.w3.org/2000/svg"
   viewBox="0 0 3400 473.33334"
   height="473.33334"
   width="3400"
   xml:space="preserve"
   id="svg2"
   version="1.1"><metadata
     id="metadata8"><rdf:RDF><cc:Work
         rdf:about=""><dc:format>image/svg+xml</dc:format><dc:type
           rdf:resource="http://purl.org/dc/dcmitype/StillImage" /></cc:Work></rdf:RDF></metadata><defs
     id="defs6" /><g
     transform="matrix(1.3333333,0,0,-1.3333333,0,473.33333)"
     id="g10"><g
       transform="scale(0.1)"
       id="g12"><g
         transform="scale(1.56442)"
         id="g14"><path
           id="path16"
           style="fill:#ffffff;fill-opacity:1;fill-rule:nonzero;stroke:none"
           d="M 5273.53,2643.18 H 16949.9 V -169.367 H 5273.53" /></g><path
         id="path18"
         style="fill:#ffffff;fill-opacity:1;fill-rule:nonzero;stroke:none"
         d="M 0,0 H 8883.32 V 5001.72 H 0 Z" /><path
         id="path20"
         style="fill:#ffffff;fill-opacity:1;fill-rule:nonzero;stroke:none"
         d="M 0,1.71875 H 8760.16 V 3549.9987 H 0 Z" /><path
         id="path22"
         style="fill:#ee2922;fill-opacity:1;fill-rule:nonzero;stroke:none"
         d="m 603.711,1660.47 -75.66,109.02 h 72.109 l 40.5,-60.08 40.039,60.08 h 69.891 l -75.668,-107.69 85,-122.42 h -72.07 l -48.082,72.57 -48.09,-72.57 h -70.739 l 82.77,121.09" /><path
         id="path24"
         style="fill:#100f0d;fill-opacity:1;fill-rule:nonzero;stroke:none"
         d="M 1059.45,1580.35 H 834.692 v 47.6172 h 224.758 z m 0,95.24 H 834.691 v 47.61 h 224.759 v -47.61" /><path
         id="path26"
         style="fill:#100f0d;fill-opacity:1;fill-rule:nonzero;stroke:none"
         d="m 1168.52,1769.49 h 63.1992 V 1539.381 H 1168.52 Z m 63.2,35.63 h -63.2 v 52.07 h 63.2 v -52.07" /><path
         id="path28"
         style="fill:#100f0d;fill-opacity:1;fill-rule:nonzero;stroke:none"
         d="m 1272.66,1769.49 h 60.07 v -32.03 h 1.33 c 16.02,25.82 43.64,38.28 70.32,38.28 67.22,0 84.14,-37.85 84.14,-94.8 v -141.56 h -63.21 v 130 c 0,37.81 -11.13,56.52 -40.51,56.52 -34.25,0 -48.94,-19.14 -48.94,-65.9 v -120.62 h -63.2 v 230.11" /><path
         id="path30"
         style="fill:#100f0d;fill-opacity:1;fill-rule:nonzero;stroke:none"
         d="m 1636.72,1728.12 c -41.41,0 -55.67,-35.62 -55.67,-73.43 0,-36.06 16.49,-73.91 55.67,-73.91 41.83,0 54.3,36.52 54.3,74.34 0,37.38 -13.36,73 -54.3,73 z m 55.19,-159.33 h -0.89 c -14.69,-24.92 -40.51,-35.63 -69.89,-35.63 -69.41,0 -103.28,59.65 -103.28,123.29 0,61.87 34.3,119.29 101.95,119.29 27.15,0 53.87,-11.56 68.56,-34.26 h -0.47 0.9 v 115.71 h 63.2 v -317.81 h -60.08 v 29.41" /><path
         id="path32"
         style="fill:#100f0d;fill-opacity:1;fill-rule:nonzero;stroke:none"
         d="m 1945.59,1679.14 c -5.79,32.07 -19.57,48.98 -50.32,48.98 -40.04,0 -51.6,-31.17 -52.5,-48.98 z m -102.82,-40.04 c 1.76,-40.08 21.37,-58.32 56.53,-58.32 25.39,0 45.86,15.59 49.84,29.84 h 55.66 c -17.81,-54.29 -55.66,-77.46 -107.73,-77.46 -72.54,0 -117.5,49.85 -117.5,121.06 0,68.98 47.62,121.52 117.5,121.52 78.32,0 116.17,-65.86 111.72,-136.64 h -166.02" /><path
         id="path34"
         style="fill:#100f0d;fill-opacity:1;fill-rule:nonzero;stroke:none"
         d="m 2208.16,1653.79 c 0,36.48 -14.68,74.33 -55.15,74.33 -41.41,0 -54.77,-36.95 -54.77,-74.33 0,-37.38 14.26,-73.01 55.2,-73.01 41.4,0 54.72,35.63 54.72,73.01 z m -170.89,115.7 h 60.07 v -29.37 h 0.9 c 15.12,24.49 40.04,35.62 68.56,35.62 72.11,0 104.61,-58.32 104.61,-123.75 0,-61.4 -33.83,-118.83 -101.06,-118.83 -27.62,0 -53.87,12.04 -68.98,34.73 h -0.9 V 1458.4 h -63.2 v 311.09" /><path
         id="path36"
         style="fill:#100f0d;fill-opacity:1;fill-rule:nonzero;stroke:none"
         d="m 2455.2,1679.14 c -5.79,32.07 -19.58,48.98 -50.32,48.98 -40.04,0 -51.64,-31.17 -52.5,-48.98 z m -102.82,-40.04 c 1.76,-40.08 21.37,-58.32 56.53,-58.32 25.35,0 45.86,15.59 49.84,29.84 h 55.63 c -17.82,-54.29 -55.63,-77.46 -107.7,-77.46 -72.58,0 -117.5,49.85 -117.5,121.06 0,68.98 47.62,121.52 117.5,121.52 78.32,0 116.17,-65.86 111.72,-136.64 h -166.02" /><path
         id="path38"
         style="fill:#100f0d;fill-opacity:1;fill-rule:nonzero;stroke:none"
         d="m 2546.88,1769.49 h 60.07 v -32.03 h 1.33 c 16.02,25.82 43.63,38.28 70.31,38.28 67.23,0 84.14,-37.85 84.14,-94.8 v -141.56 h -63.2 v 130 c 0,37.81 -11.13,56.52 -40.51,56.52 -34.25,0 -48.94,-19.14 -48.94,-65.9 v -120.62 h -63.2 v 230.11" /><path
         id="path40"
         style="fill:#100f0d;fill-opacity:1;fill-rule:nonzero;stroke:none"
         d="m 2910.94,1728.12 c -41.41,0 -55.67,-35.62 -55.67,-73.43 0,-36.06 16.49,-73.91 55.67,-73.91 41.83,0 54.29,36.52 54.29,74.34 0,37.38 -13.35,73 -54.29,73 z m 55.19,-159.33 h -0.9 c -14.68,-24.92 -40.5,-35.63 -69.88,-35.63 -69.41,0 -103.24,59.65 -103.24,123.29 0,61.87 34.26,119.29 101.91,119.29 27.15,0 53.87,-11.56 68.56,-34.26 h -0.47 0.9 v 115.71 h 63.2 v -317.81 h -60.08 v 29.41" /><path
         id="path42"
         style="fill:#100f0d;fill-opacity:1;fill-rule:nonzero;stroke:none"
         d="m 3219.8,1679.14 c -5.78,32.07 -19.57,48.98 -50.31,48.98 -40.04,0 -51.6,-31.17 -52.5,-48.98 z m -102.81,-40.04 c 1.8,-40.08 21.37,-58.32 56.53,-58.32 25.39,0 45.86,15.59 49.84,29.84 h 55.66 c -17.81,-54.29 -55.66,-77.46 -107.73,-77.46 -72.54,0 -117.5,49.85 -117.5,121.06 0,68.98 47.62,121.52 117.5,121.52 78.36,0 116.17,-65.86 111.72,-136.64 h -166.02" /><path
         id="path44"
         style="fill:#100f0d;fill-opacity:1;fill-rule:nonzero;stroke:none"
         d="m 3311.48,1769.49 h 60.08 v -32.03 h 1.33 c 16.06,25.82 43.63,38.28 70.35,38.28 67.19,0 84.1,-37.85 84.1,-94.8 v -141.56 h -63.2 v 130 c 0,37.81 -11.13,56.52 -40.51,56.52 -34.25,0 -48.94,-19.14 -48.94,-65.9 v -120.62 h -63.21 v 230.11" /><path
         id="path46"
         style="fill:#100f0d;fill-opacity:1;fill-rule:nonzero;stroke:none"
         d="m 3646.6,1769.49 h 46.29 v -42.26 h -46.29 v -113.95 c 0,-21.37 5.35,-26.72 26.72,-26.72 6.68,0 12.89,0.47 19.57,1.8 v -49.41 c -10.66,-1.76 -24.45,-2.23 -36.91,-2.23 -38.75,0 -72.58,8.9 -72.58,54.76 v 135.75 h -38.24 v 42.26 h 38.24 v 69.03 h 63.2 v -69.03" /><path
         id="path48"
         style="fill:#100f0d;fill-opacity:1;fill-rule:nonzero;stroke:none"
         d="m 3716.05,1539.38 h 63.1992 v 317.813 H 3716.05 Z" /><path
         id="path50"
         style="fill:#100f0d;fill-opacity:1;fill-rule:nonzero;stroke:none"
         d="m 3933.67,1510.47 c -13.79,-36.95 -35.58,-52.07 -79.22,-52.07 -12.89,0 -25.82,0.9 -38.71,2.22 v 52.08 c 11.99,-0.9 24.46,-2.66 36.96,-2.23 21.79,2.23 28.9,24.92 21.79,43.16 l -81.01,215.86 h 67.65 l 52.07,-157.54 h 0.9 l 50.31,157.54 h 65.43 l -96.17,-259.02" /><path
         id="path52"
         style="fill:#100f0d;fill-opacity:1;fill-rule:nonzero;stroke:none"
         d="m 4268.83,1580.78 c 43.16,0 56.09,36.95 56.09,73.44 0,36.95 -12.93,73.9 -56.09,73.9 -42.74,0 -55.63,-36.95 -55.63,-73.9 0,-36.49 12.89,-73.44 55.63,-73.44 z m 0,194.96 c 72.54,0 119.29,-48.08 119.29,-121.52 0,-72.97 -46.75,-121.06 -119.29,-121.06 -72.11,0 -118.83,48.09 -118.83,121.06 0,73.44 46.72,121.52 118.83,121.52" /><path
         id="path54"
         style="fill:#100f0d;fill-opacity:1;fill-rule:nonzero;stroke:none"
         d="m 4411.25,1769.49 h 60.08 v -42.69 h 0.9 c 11.56,28.9 42.73,48.94 73.43,48.94 4.46,0 9.81,-0.9 13.79,-2.22 v -58.75 c -5.78,1.32 -15.11,2.22 -22.69,2.22 -46.29,0 -62.31,-33.4 -62.31,-73.9 v -103.71 h -63.2 v 230.11" /><path
         id="path56"
         style="fill:#100f0d;fill-opacity:1;fill-rule:nonzero;stroke:none"
         d="m 4736.6,1657.34 c 0,37.39 -12.93,70.78 -53.87,70.78 -35.58,0 -51.17,-31.17 -51.17,-65.42 0,-32.93 12.46,-68.99 51.17,-68.99 36.06,0 53.87,30.7 53.87,63.63 z m 60.08,-103.28 c 0,-37.81 -13.36,-101.91 -119.3,-101.91 -45.39,0 -98.36,21.37 -101.48,73.9 h 62.77 c 5.78,-23.59 24.92,-31.64 47.19,-31.64 35.16,0 51.17,24.07 50.74,57 v 30.27 h -0.9 c -13.79,-24.02 -41.4,-35.63 -68.98,-35.63 -68.99,0 -98.36,52.54 -98.36,115.75 0,59.65 34.26,113.94 98.79,113.94 30.27,0 53.44,-10.23 68.55,-36.95 h 0.9 v 30.7 h 60.08 v -215.43" /><path
         id="path58"
         style="fill:#100f0d;fill-opacity:1;fill-rule:nonzero;stroke:none"
         d="m 4972.93,1651.99 c -10.7,-9.33 -32.97,-9.76 -52.54,-13.36 -19.57,-3.98 -37.38,-10.66 -37.38,-33.83 0,-23.55 18.24,-29.33 38.71,-29.33 49.41,0 51.21,39.14 51.21,52.93 z m -146.02,46.76 c 3.6,59.18 56.53,76.99 108.17,76.99 45.86,0 101.05,-10.23 101.05,-65.43 v -119.72 c 0,-20.94 2.23,-41.84 8.01,-51.21 h -64.1 c -2.23,7.14 -3.99,14.68 -4.45,22.26 -20.04,-20.9 -49.42,-28.48 -77.47,-28.48 -43.59,0 -78.32,21.8 -78.32,68.99 0,52.07 39.18,64.53 78.32,69.88 38.76,5.78 74.81,4.45 74.81,30.27 0,27.15 -18.71,31.18 -40.98,31.18 -24.02,0 -39.61,-9.81 -41.83,-34.73 h -63.21" /><path
         id="path60"
         style="fill:#100f0d;fill-opacity:1;fill-rule:nonzero;stroke:none"
         d="m 5076.17,1769.49 h 60.08 v -32.03 h 1.33 c 16.01,25.82 43.63,38.28 70.35,38.28 67.19,0 84.1,-37.85 84.1,-94.8 v -141.56 h -63.2 v 130 c 0,37.81 -11.13,56.52 -40.51,56.52 -34.26,0 -48.94,-19.14 -48.94,-65.9 v -120.62 h -63.21 v 230.11" /><path
         id="path62"
         style="fill:#100f0d;fill-opacity:1;fill-rule:nonzero;stroke:none"
         d="m 5324.06,1769.49 h 63.2109 V 1539.381 H 5324.06 Z m 63.21,35.63 h -63.21 v 52.07 h 63.21 v -52.07" /><path
         id="path64"
         style="fill:#100f0d;fill-opacity:1;fill-rule:nonzero;stroke:none"
         d="m 5413.95,1587.03 119.76,134.85 h -110.86 v 47.61 h 194.06 v -47.61 l -119.72,-134.85 h 128.2 v -47.65 h -211.44 v 47.65" /><path
         id="path66"
         style="fill:#100f0d;fill-opacity:1;fill-rule:nonzero;stroke:none"
         d="m 5805.2,1679.14 c -5.79,32.07 -19.58,48.98 -50.32,48.98 -40.04,0 -51.6,-31.17 -52.5,-48.98 z m -102.82,-40.04 c 1.76,-40.08 21.37,-58.32 56.53,-58.32 25.35,0 45.86,15.59 49.84,29.84 h 55.63 c -17.78,-54.29 -55.63,-77.46 -107.7,-77.46 -72.54,0 -117.5,49.85 -117.5,121.06 0,68.98 47.62,121.52 117.5,121.52 78.32,0 116.17,-65.86 111.72,-136.64 h -166.02" /><path
         id="path68"
         style="fill:#100f0d;fill-opacity:1;fill-rule:nonzero;stroke:none"
         d="m 6005.94,1728.12 c -41.41,0 -55.67,-35.62 -55.67,-73.43 0,-36.06 16.49,-73.91 55.67,-73.91 41.83,0 54.29,36.52 54.29,74.34 0,37.38 -13.35,73 -54.29,73 z m 55.19,-159.33 h -0.9 c -14.68,-24.92 -40.5,-35.63 -69.88,-35.63 -69.45,0 -103.28,59.65 -103.28,123.29 0,61.87 34.3,119.29 101.95,119.29 27.15,0 53.83,-11.56 68.52,-34.26 h -0.43 0.9 v 115.71 h 63.2 v -317.81 h -60.08 v 29.41" /><path
         id="path70"
         style="fill:#100f0d;fill-opacity:1;fill-rule:nonzero;stroke:none"
         d="m 6351.72,1798.44 h -95.24 v 58.75 h 260.4 v -58.75 h -95.28 v -259.06 h -69.88 v 259.06" /><path
         id="path72"
         style="fill:#100f0d;fill-opacity:1;fill-rule:nonzero;stroke:none"
         d="m 6544.45,1857.19 h 237.66 v -58.75 h -167.77 v -68.09 h 153.98 v -54.3 h -153.98 v -77.89 h 171.32 v -58.78 h -241.21 v 317.81" /><path
         id="path74"
         style="fill:#100f0d;fill-opacity:1;fill-rule:nonzero;stroke:none"
         d="m 6884.92,1598.16 h 62.31 c 40.5,0 79.25,24.93 79.25,95.24 0,64.1 -22.26,105.04 -91.71,105.04 h -49.85 z m -69.88,259.03 h 137.11 c 82.34,0 144.18,-51.64 144.18,-157.11 0,-92.15 -47.15,-160.7 -144.18,-160.7 h -137.11 v 317.81" /><path
         id="path76"
         style="fill:#100f0d;fill-opacity:1;fill-rule:nonzero;stroke:none"
         d="m 7398.98,1679.14 c -5.78,32.07 -19.57,48.98 -50.31,48.98 -40.04,0 -51.6,-31.17 -52.5,-48.98 z m -102.81,-40.04 c 1.76,-40.08 21.37,-58.32 56.53,-58.32 25.35,0 45.85,15.59 49.84,29.84 h 55.62 c -17.77,-54.29 -55.62,-77.46 -107.69,-77.46 -72.54,0 -117.5,49.85 -117.5,121.06 0,68.98 47.62,121.52 117.5,121.52 78.32,0 116.17,-65.86 111.72,-136.64 h -166.02" /><path
         id="path78"
         style="fill:#100f0d;fill-opacity:1;fill-rule:nonzero;stroke:none"
         d="m 7609.06,1539.38 h -70.35 l -78.75,230.11 h 66.29 l 48.52,-157.11 h 0.89 l 48.52,157.11 h 62.77 l -77.89,-230.11" /><path
         id="path80"
         style="fill:#100f0d;fill-opacity:1;fill-rule:nonzero;stroke:none"
         d="m 7850.27,1679.14 c -5.78,32.07 -19.57,48.98 -50.27,48.98 -40.08,0 -51.64,-31.17 -52.54,-48.98 z m -102.81,-40.04 c 1.8,-40.08 21.37,-58.32 56.52,-58.32 25.4,0 45.86,15.59 49.85,29.84 h 55.66 c -17.81,-54.29 -55.66,-77.46 -107.73,-77.46 -72.54,0 -117.5,49.85 -117.5,121.06 0,68.98 47.62,121.52 117.5,121.52 78.36,0 116.17,-65.86 111.72,-136.64 h -166.02" /><path
         id="path82"
         style="fill:#100f0d;fill-opacity:1;fill-rule:nonzero;stroke:none"
         d="m 7941.95,1769.49 h 60.08 v -32.03 h 1.37 c 16.01,25.82 43.59,38.28 70.31,38.28 67.23,0 84.14,-37.85 84.14,-94.8 v -141.56 h -63.2 v 130 c 0,37.81 -11.13,56.52 -40.51,56.52 -34.3,0 -48.98,-19.14 -48.98,-65.9 v -120.62 h -63.21 v 230.11" /><path
         id="path84"
         style="fill:#100f0d;fill-opacity:1;fill-rule:nonzero;stroke:none"
         d="m 8277.07,1769.49 h 46.33 v -42.26 h -46.33 v -113.95 c 0,-21.37 5.35,-26.72 26.72,-26.72 6.68,0 12.93,0.47 19.61,1.8 v -49.41 c -10.7,-1.76 -24.49,-2.23 -36.95,-2.23 -38.72,0 -72.54,8.9 -72.54,54.76 v 135.75 h -38.29 v 42.26 h 38.29 v 69.03 h 63.16 v -69.03" /><path
         id="path86"
         style="fill:#ee2922;fill-opacity:1;fill-rule:nonzero;stroke:none"
         d="M 794.219,2908.59 H 497.66 v 271.25 h 918.79 V 2908.59 H 1120.04 V 2121.64 H 794.219 v 786.95" /><path
         id="path88"
         style="fill:#ee2922;fill-opacity:1;fill-rule:nonzero;stroke:none"
         d="m 1467.11,3179.84 h 891.91 v -271.25 h -565.9 v -131.83 h 565.9 v -252.03 h -565.9 v -131.88 h 566.06 v -271.21 h -892.07 v 1058.2" /><path
         id="path90"
         style="fill:#ee2922;fill-opacity:1;fill-rule:nonzero;stroke:none"
         d="m 2739.88,2392.85 h 127.5 c 203.09,0 232.78,164.57 232.78,263.99 0,66.56 -20.86,251.75 -256.53,251.75 h -103.75 z m -325.97,786.99 h 535 c 352.65,0 477.26,-260.86 477.26,-527.54 0,-324.64 -171.91,-530.66 -540.94,-530.66 h -471.32 v 1058.2" /><path
         id="path92"
         style="fill:#ee2922;fill-opacity:1;fill-rule:nonzero;stroke:none"
         d="m 3894.65,2529.41 -99.45,164.93 -97,-164.93 h -238.86 l 226.75,333.48 -218.36,318.99 h 238.99 l 88.48,-157.7 91.01,157.7 h 238.91 l -218.32,-318.99 226.75,-333.48 h -238.9" /><g
         transform="scale(10)"
         id="g94"><text
           id="text98"
           style="font-variant:normal;font-weight:normal;font-size:149px;font-family:Helvetica;-inkscape-font-specification:Helvetica;writing-mode:lr-tb;fill:#000000;fill-opacity:1;fill-rule:nonzero;stroke:none"
           transform="matrix(1,0,0,-1,432.805,211.252)"><tspan
             id="tspan96"
             y="0"
             x="0 99.383003 182.22701 231.84399 314.68799 397.53201 480.37601 563.21997 646.06403 753.64203 786.71997 819.79797 943.91498 1026.759 1068.181 1151.025 1250.408 1333.252 1407.752 1449.174 1490.5959 1565.0959 1606.5179 1689.3621 1772.2061 1855.05 1937.894">EuropeanClimatePactIstanbul</tspan></text>
</g></g></g></svg>