<?xml version="1.0" encoding="UTF-8" standalone="no"?>
<svg
   xmlns:dc="http://purl.org/dc/elements/1.1/"
   xmlns:cc="http://creativecommons.org/ns#"
   xmlns:rdf="http://www.w3.org/1999/02/22-rdf-syntax-ns#"
   xmlns:svg="http://www.w3.org/2000/svg"
   xmlns="http://www.w3.org/2000/svg"
   xmlns:sodipodi="http://sodipodi.sourceforge.net/DTD/sodipodi-0.dtd"
   xmlns:inkscape="http://www.inkscape.org/namespaces/inkscape"
   version="1.1"
   id="svg2"
   xml:space="preserve"
   width="1168.0267"
   height="473.10666"
   viewBox="0 0 1168.0267 473.10666"
   sodipodi:docname="TEDx_logo_RGB_CS2.eps"><metadata
     id="metadata8"><rdf:RDF><cc:Work
         rdf:about=""><dc:format>image/svg+xml</dc:format><dc:type
           rdf:resource="http://purl.org/dc/dcmitype/StillImage" /></cc:Work></rdf:RDF></metadata><defs
     id="defs6" /><sodipodi:namedview
     pagecolor="#ffffff"
     bordercolor="#666666"
     borderopacity="1"
     objecttolerance="10"
     gridtolerance="10"
     guidetolerance="10"
     inkscape:pageopacity="0"
     inkscape:pageshadow="2"
     inkscape:window-width="640"
     inkscape:window-height="480"
     id="namedview4" /><g
     id="g10"
     inkscape:groupmode="layer"
     inkscape:label="ink_ext_XXXXXX"
     transform="matrix(1.3333333,0,0,-1.3333333,0,473.10667)"><g
       id="g12"
       transform="scale(0.1)"><path
         d="M 8760.16,0 H 0 V 3548.3 H 8760.16 V 0"
         style="fill:#ffffff;fill-opacity:1;fill-rule:nonzero;stroke:none"
         id="path14" /><path
         d="m 603.711,1658.76 -75.668,109.05 h 72.109 l 40.5,-60.09 40.063,60.09 h 69.883 l -75.672,-107.71 85.015,-122.41 h -72.105 l -48.07,72.55 -48.071,-72.55 h -70.773 l 82.789,121.07"
         style="fill:#ee2922;fill-opacity:1;fill-rule:nonzero;stroke:none"
         id="path16" /><path
         d="M 1059.47,1578.64 H 834.691 v 47.63 h 224.779 z m 0,95.26 H 834.691 v 47.62 h 224.779 v -47.62"
         style="fill:#100f0d;fill-opacity:1;fill-rule:nonzero;stroke:none"
         id="path18" /><path
         d="m 1168.5,1767.81 h 63.2 v -230.12 h -63.2 z m 63.2,35.61 h -63.2 v 52.08 h 63.2 v -52.08"
         style="fill:#100f0d;fill-opacity:1;fill-rule:nonzero;stroke:none"
         id="path20" /><path
         d="m 1272.64,1767.81 h 60.09 v -32.04 h 1.34 c 16.02,25.81 43.62,38.27 70.32,38.27 67.21,0 84.13,-37.83 84.13,-94.8 v -141.55 h -63.21 v 129.98 c 0,37.83 -11.13,56.52 -40.5,56.52 -34.27,0 -48.96,-19.14 -48.96,-65.88 v -120.62 h -63.21 v 230.12"
         style="fill:#100f0d;fill-opacity:1;fill-rule:nonzero;stroke:none"
         id="path22" /><path
         d="m 1636.71,1726.42 c -41.39,0 -55.64,-35.61 -55.64,-73.45 0,-36.05 16.47,-73.88 55.64,-73.88 41.84,0 54.31,36.5 54.31,74.33 0,37.39 -13.36,73 -54.31,73 z m 55.19,-159.35 h -0.88 c -14.69,-24.92 -40.51,-35.61 -69.89,-35.61 -69.43,0 -103.26,59.65 -103.26,123.3 0,61.87 34.27,119.28 101.93,119.28 27.15,0 53.86,-11.57 68.54,-34.27 h -0.44 0.89 v 115.73 h 63.2 v -317.81 h -60.09 v 29.38"
         style="fill:#100f0d;fill-opacity:1;fill-rule:nonzero;stroke:none"
         id="path24" /><path
         d="m 1945.59,1677.46 c -5.79,32.04 -19.58,48.96 -50.3,48.96 -40.06,0 -51.63,-31.16 -52.52,-48.96 z m -102.82,-40.06 c 1.78,-40.06 21.37,-58.31 56.53,-58.31 25.37,0 45.85,15.58 49.85,29.82 h 55.64 c -17.81,-54.3 -55.64,-77.45 -107.71,-77.45 -72.56,0 -117.51,49.85 -117.51,121.07 0,68.99 47.62,121.51 117.51,121.51 78.33,0 116.17,-65.87 111.71,-136.64 h -166.02"
         style="fill:#100f0d;fill-opacity:1;fill-rule:nonzero;stroke:none"
         id="path26" /><path
         d="m 2208.18,1652.08 c 0,36.5 -14.69,74.34 -55.19,74.34 -41.39,0 -54.75,-36.95 -54.75,-74.34 0,-37.38 14.25,-72.99 55.19,-72.99 41.4,0 54.75,35.61 54.75,72.99 z m -170.92,115.73 h 60.09 v -29.38 h 0.89 c 15.13,24.48 40.06,35.61 68.55,35.61 72.1,0 104.6,-58.31 104.6,-123.73 0,-61.43 -33.83,-118.85 -101.04,-118.85 -27.6,0 -53.86,12.02 -68.99,34.72 h -0.89 v -109.49 h -63.21 v 311.12"
         style="fill:#100f0d;fill-opacity:1;fill-rule:nonzero;stroke:none"
         id="path28" /><path
         d="m 2455.19,1677.46 c -5.79,32.04 -19.58,48.96 -50.3,48.96 -40.06,0 -51.63,-31.16 -52.52,-48.96 z m -102.82,-40.06 c 1.78,-40.06 21.37,-58.31 56.53,-58.31 25.37,0 45.85,15.58 49.85,29.82 h 55.64 c -17.81,-54.3 -55.64,-77.45 -107.72,-77.45 -72.55,0 -117.5,49.85 -117.5,121.07 0,68.99 47.62,121.51 117.5,121.51 78.34,0 116.18,-65.87 111.72,-136.64 h -166.02"
         style="fill:#100f0d;fill-opacity:1;fill-rule:nonzero;stroke:none"
         id="path30" /><path
         d="m 2546.86,1767.81 h 60.09 v -32.04 h 1.34 c 16.02,25.81 43.61,38.27 70.32,38.27 67.21,0 84.12,-37.83 84.12,-94.8 v -141.55 h -63.2 v 129.98 c 0,37.83 -11.13,56.52 -40.5,56.52 -34.27,0 -48.96,-19.14 -48.96,-65.88 v -120.62 h -63.21 v 230.12"
         style="fill:#100f0d;fill-opacity:1;fill-rule:nonzero;stroke:none"
         id="path32" /><path
         d="m 2910.93,1726.42 c -41.39,0 -55.64,-35.61 -55.64,-73.45 0,-36.05 16.47,-73.88 55.64,-73.88 41.84,0 54.3,36.5 54.3,74.33 0,37.39 -13.35,73 -54.3,73 z m 55.19,-159.35 h -0.89 c -14.68,-24.92 -40.5,-35.61 -69.88,-35.61 -69.43,0 -103.26,59.65 -103.26,123.3 0,61.87 34.27,119.28 101.93,119.28 27.15,0 53.86,-11.57 68.54,-34.27 h -0.44 0.89 v 115.73 h 63.2 v -317.81 h -60.09 v 29.38"
         style="fill:#100f0d;fill-opacity:1;fill-rule:nonzero;stroke:none"
         id="path34" /><path
         d="m 3219.81,1677.46 c -5.79,32.04 -19.59,48.96 -50.3,48.96 -40.06,0 -51.63,-31.16 -52.52,-48.96 z m -102.82,-40.06 c 1.78,-40.06 21.36,-58.31 56.53,-58.31 25.37,0 45.85,15.58 49.85,29.82 h 55.64 c -17.81,-54.3 -55.64,-77.45 -107.72,-77.45 -72.55,0 -117.5,49.85 -117.5,121.07 0,68.99 47.62,121.51 117.5,121.51 78.34,0 116.18,-65.87 111.72,-136.64 h -166.02"
         style="fill:#100f0d;fill-opacity:1;fill-rule:nonzero;stroke:none"
         id="path36" /><path
         d="m 3311.48,1767.81 h 60.09 v -32.04 h 1.34 c 16.02,25.81 43.61,38.27 70.32,38.27 67.21,0 84.12,-37.83 84.12,-94.8 v -141.55 h -63.2 v 129.98 c 0,37.83 -11.13,56.52 -40.5,56.52 -34.27,0 -48.96,-19.14 -48.96,-65.88 v -120.62 h -63.21 v 230.12"
         style="fill:#100f0d;fill-opacity:1;fill-rule:nonzero;stroke:none"
         id="path38" /><path
         d="m 3646.62,1767.81 h 46.29 v -42.28 h -46.29 v -113.95 c 0,-21.37 5.34,-26.7 26.71,-26.7 6.67,0 12.9,0.44 19.58,1.77 v -49.4 c -10.68,-1.78 -24.48,-2.23 -36.94,-2.23 -38.73,0 -72.56,8.9 -72.56,54.75 v 135.76 h -38.27 v 42.28 h 38.27 v 68.99 h 63.21 v -68.99"
         style="fill:#100f0d;fill-opacity:1;fill-rule:nonzero;stroke:none"
         id="path40" /><path
         d="m 3716.04,1855.5 h 63.2 v -317.81 h -63.2 v 317.81"
         style="fill:#100f0d;fill-opacity:1;fill-rule:nonzero;stroke:none"
         id="path42" /><path
         d="m 3933.69,1508.76 c -13.8,-36.94 -35.61,-52.07 -79.23,-52.07 -12.91,0 -25.82,0.89 -38.72,2.23 v 52.07 c 12.01,-0.89 24.47,-2.67 36.94,-2.23 21.81,2.23 28.93,24.93 21.81,43.18 l -81.01,215.87 h 67.66 l 52.07,-157.57 h 0.89 l 50.3,157.57 h 65.43 l -96.14,-259.05"
         style="fill:#100f0d;fill-opacity:1;fill-rule:nonzero;stroke:none"
         id="path44" /><path
         d="m 4268.83,1579.09 c 43.17,0 56.08,36.94 56.08,73.44 0,36.94 -12.91,73.89 -56.08,73.89 -42.73,0 -55.64,-36.95 -55.64,-73.89 0,-36.5 12.91,-73.44 55.64,-73.44 z m 0,194.95 c 72.55,0 119.29,-48.07 119.29,-121.51 0,-72.99 -46.74,-121.07 -119.29,-121.07 -72.11,0 -118.84,48.08 -118.84,121.07 0,73.44 46.73,121.51 118.84,121.51"
         style="fill:#100f0d;fill-opacity:1;fill-rule:nonzero;stroke:none"
         id="path46" /><path
         d="m 4411.24,1767.81 h 60.09 v -42.73 h 0.89 c 11.57,28.93 42.73,48.96 73.44,48.96 4.45,0 9.79,-0.89 13.79,-2.22 v -58.75 c -5.78,1.33 -15.13,2.22 -22.7,2.22 -46.29,0 -62.31,-33.38 -62.31,-73.89 v -103.71 h -63.2 v 230.12"
         style="fill:#100f0d;fill-opacity:1;fill-rule:nonzero;stroke:none"
         id="path48" /><path
         d="m 4736.59,1655.64 c 0,37.4 -12.91,70.78 -53.86,70.78 -35.6,0 -51.18,-31.16 -51.18,-65.43 0,-32.94 12.46,-68.99 51.18,-68.99 36.06,0 53.86,30.71 53.86,63.64 z m 60.09,-103.26 c 0,-37.83 -13.35,-101.92 -119.29,-101.92 -45.4,0 -98.36,21.36 -101.48,73.88 h 62.76 c 5.79,-23.59 24.92,-31.61 47.18,-31.61 35.17,0 51.19,24.05 50.74,56.98 v 30.27 h -0.89 c -13.8,-24.04 -41.39,-35.61 -68.99,-35.61 -68.99,0 -98.37,52.52 -98.37,115.73 0,59.64 34.28,113.94 98.82,113.94 30.26,0 53.41,-10.24 68.54,-36.94 h 0.89 v 30.71 h 60.09 v -215.43"
         style="fill:#100f0d;fill-opacity:1;fill-rule:nonzero;stroke:none"
         id="path50" /><path
         d="m 4972.92,1650.31 c -10.68,-9.35 -32.94,-9.8 -52.52,-13.36 -19.59,-4.01 -37.39,-10.68 -37.39,-33.83 0,-23.58 18.25,-29.37 38.72,-29.37 49.41,0 51.19,39.16 51.19,52.96 z m -145.99,46.73 c 3.56,59.2 56.52,77 108.15,77 45.85,0 101.04,-10.24 101.04,-65.43 v -119.73 c 0,-20.92 2.23,-41.84 8.02,-51.19 h -64.1 c -2.23,7.12 -4,14.69 -4.45,22.26 -20.03,-20.92 -49.41,-28.49 -77.45,-28.49 -43.62,0 -78.34,21.81 -78.34,68.99 0,52.08 39.17,64.54 78.34,69.89 38.73,5.78 74.78,4.44 74.78,30.26 0,27.15 -18.7,31.16 -40.95,31.16 -24.04,0 -39.62,-9.79 -41.84,-34.72 h -63.2"
         style="fill:#100f0d;fill-opacity:1;fill-rule:nonzero;stroke:none"
         id="path52" /><path
         d="m 5076.16,1767.81 h 60.09 v -32.04 h 1.34 c 16.02,25.81 43.62,38.27 70.33,38.27 67.2,0 84.12,-37.83 84.12,-94.8 v -141.55 h -63.21 v 129.98 c 0,37.83 -11.12,56.52 -40.5,56.52 -34.27,0 -48.96,-19.14 -48.96,-65.88 v -120.62 h -63.21 v 230.12"
         style="fill:#100f0d;fill-opacity:1;fill-rule:nonzero;stroke:none"
         id="path54" /><path
         d="m 5324.06,1767.81 h 63.21 v -230.12 h -63.21 z m 63.21,35.61 h -63.21 v 52.08 h 63.21 v -52.08"
         style="fill:#100f0d;fill-opacity:1;fill-rule:nonzero;stroke:none"
         id="path56" /><path
         d="m 5413.96,1585.32 119.74,134.86 h -110.83 v 47.63 h 194.06 v -47.63 L 5497.2,1585.32 h 128.19 v -47.63 h -211.43 v 47.63"
         style="fill:#100f0d;fill-opacity:1;fill-rule:nonzero;stroke:none"
         id="path58" /><path
         d="m 5805.19,1677.46 c -5.78,32.04 -19.58,48.96 -50.29,48.96 -40.06,0 -51.63,-31.16 -52.52,-48.96 z m -102.81,-40.06 c 1.78,-40.06 21.37,-58.31 56.52,-58.31 25.37,0 45.85,15.58 49.85,29.82 h 55.64 c -17.8,-54.3 -55.64,-77.45 -107.72,-77.45 -72.54,0 -117.5,49.85 -117.5,121.07 0,68.99 47.63,121.51 117.5,121.51 78.34,0 116.18,-65.87 111.73,-136.64 h -166.02"
         style="fill:#100f0d;fill-opacity:1;fill-rule:nonzero;stroke:none"
         id="path60" /><path
         d="m 6005.92,1726.42 c -41.39,0 -55.63,-35.61 -55.63,-73.45 0,-36.05 16.46,-73.88 55.63,-73.88 41.84,0 54.3,36.5 54.3,74.33 0,37.39 -13.35,73 -54.3,73 z m 55.2,-159.35 h -0.9 c -14.69,-24.92 -40.5,-35.61 -69.87,-35.61 -69.45,0 -103.27,59.65 -103.27,123.3 0,61.87 34.27,119.28 101.93,119.28 27.15,0 53.86,-11.57 68.54,-34.27 h -0.45 0.89 v 115.73 h 63.22 v -317.81 h -60.09 v 29.38"
         style="fill:#100f0d;fill-opacity:1;fill-rule:nonzero;stroke:none"
         id="path62" /><path
         d="m 6351.73,1796.74 h -95.24 v 58.76 h 260.38 v -58.76 h -95.25 v -259.05 h -69.89 v 259.05"
         style="fill:#100f0d;fill-opacity:1;fill-rule:nonzero;stroke:none"
         id="path64" /><path
         d="m 6544.44,1855.5 h 237.68 v -58.76 h -167.8 v -68.1 h 154.01 v -54.3 h -154.01 v -77.89 h 171.36 v -58.76 h -241.24 v 317.81"
         style="fill:#100f0d;fill-opacity:1;fill-rule:nonzero;stroke:none"
         id="path66" /><path
         d="m 6884.93,1596.45 h 62.31 c 40.5,0 79.23,24.92 79.23,95.25 0,64.1 -22.26,105.04 -91.7,105.04 h -49.84 z m -69.89,259.05 h 137.09 c 82.35,0 144.21,-51.64 144.21,-157.13 0,-92.13 -47.17,-160.68 -144.21,-160.68 h -137.09 v 317.81"
         style="fill:#100f0d;fill-opacity:1;fill-rule:nonzero;stroke:none"
         id="path68" /><path
         d="m 7398.98,1677.46 c -5.78,32.04 -19.58,48.96 -50.29,48.96 -40.06,0 -51.63,-31.16 -52.52,-48.96 z m -102.81,-40.06 c 1.77,-40.06 21.36,-58.31 56.52,-58.31 25.37,0 45.85,15.58 49.85,29.82 h 55.64 c -17.8,-54.3 -55.64,-77.45 -107.72,-77.45 -72.54,0 -117.5,49.85 -117.5,121.07 0,68.99 47.63,121.51 117.5,121.51 78.34,0 116.18,-65.87 111.73,-136.64 h -166.02"
         style="fill:#100f0d;fill-opacity:1;fill-rule:nonzero;stroke:none"
         id="path70" /><path
         d="m 7609.06,1537.69 h -70.33 l -78.78,230.12 h 66.31 l 48.52,-157.12 h 0.89 l 48.51,157.12 h 62.77 l -77.89,-230.12"
         style="fill:#100f0d;fill-opacity:1;fill-rule:nonzero;stroke:none"
         id="path72" /><path
         d="m 7850.28,1677.46 c -5.78,32.04 -19.58,48.96 -50.29,48.96 -40.06,0 -51.64,-31.16 -52.52,-48.96 z m -102.81,-40.06 c 1.77,-40.06 21.36,-58.31 56.52,-58.31 25.37,0 45.85,15.58 49.85,29.82 h 55.64 c -17.81,-54.3 -55.64,-77.45 -107.72,-77.45 -72.55,0 -117.5,49.85 -117.5,121.07 0,68.99 47.63,121.51 117.5,121.51 78.34,0 116.17,-65.87 111.72,-136.64 h -166.01"
         style="fill:#100f0d;fill-opacity:1;fill-rule:nonzero;stroke:none"
         id="path74" /><path
         d="m 7941.96,1767.81 h 60.09 v -32.04 h 1.33 c 16.03,25.81 43.63,38.27 70.33,38.27 67.21,0 84.13,-37.83 84.13,-94.8 v -141.55 h -63.21 v 129.98 c 0,37.83 -11.13,56.52 -40.5,56.52 -34.28,0 -48.97,-19.14 -48.97,-65.88 v -120.62 h -63.2 v 230.12"
         style="fill:#100f0d;fill-opacity:1;fill-rule:nonzero;stroke:none"
         id="path76" /><path
         d="m 8277.09,1767.81 h 46.29 v -42.28 h -46.29 v -113.95 c 0,-21.37 5.35,-26.7 26.71,-26.7 6.68,0 12.91,0.44 19.58,1.77 v -49.4 c -10.67,-1.78 -24.47,-2.23 -36.94,-2.23 -38.72,0 -72.55,8.9 -72.55,54.75 v 135.76 h -38.28 v 42.28 h 38.28 v 68.99 h 63.2 v -68.99"
         style="fill:#100f0d;fill-opacity:1;fill-rule:nonzero;stroke:none"
         id="path78" /><path
         d="M 794.215,2906.91 H 497.668 v 271.22 H 1416.46 V 2906.91 H 1120.02 V 2119.96 H 794.215 v 786.95"
         style="fill:#ee2922;fill-opacity:1;fill-rule:nonzero;stroke:none"
         id="path80" /><path
         d="m 1467.1,3178.13 h 891.92 v -271.22 h -565.9 v -131.86 h 565.9 v -252.02 h -565.9 v -131.87 h 566.05 v -271.2 H 1467.1 v 1058.17"
         style="fill:#ee2922;fill-opacity:1;fill-rule:nonzero;stroke:none"
         id="path82" /><path
         d="m 2739.89,2391.16 h 127.5 c 203.09,0 232.78,164.56 232.78,263.96 0,66.56 -20.86,251.79 -256.52,251.79 h -103.76 z m -326,786.97 h 535 c 352.66,0 477.3,-260.85 477.3,-527.54 0,-324.65 -171.92,-530.63 -540.96,-530.63 h -471.34 v 1058.17"
         style="fill:#ee2922;fill-opacity:1;fill-rule:nonzero;stroke:none"
         id="path84" /><path
         d="m 3894.64,2527.73 -99.45,164.91 -96.98,-164.91 h -238.87 l 226.77,333.46 -218.36,318.97 h 238.95 l 88.49,-157.67 91.03,157.67 h 238.88 l -218.29,-318.97 226.76,-333.46 h -238.93"
         style="fill:#ee2922;fill-opacity:1;fill-rule:nonzero;stroke:none"
         id="path86" /></g></g></svg>
